<svg xmlns="http://www.w3.org/2000/svg" width="1840" height="576" viewBox="0 0 1840 576" version="1.1"><path d="M 1377.073 183.635 C 1373.333 188.389, 1375.291 194.246, 1381.042 195.509 C 1385.945 196.586, 1389 193.946, 1389 188.632 C 1389 183.490, 1386.796 181, 1382.244 181 C 1380.087 181, 1378.515 181.801, 1377.073 183.635 M 1228 221.500 L 1228 260 1233.500 260 L 1239 260 1239 253.434 C 1239 249.823, 1239.506 245.886, 1240.125 244.684 C 1241.719 241.590, 1245.142 238, 1246.498 238 C 1247.130 238, 1250.856 242.950, 1254.777 249 L 1261.907 260 1268.287 260 C 1271.796 260, 1274.920 259.746, 1275.231 259.436 C 1275.541 259.126, 1271.341 252.154, 1265.897 243.944 C 1260.454 235.733, 1256 228.298, 1256 227.422 C 1256 226.545, 1259.825 221.540, 1264.500 216.299 C 1269.175 211.059, 1273 206.372, 1273 205.885 C 1273 205.398, 1270.156 205, 1266.681 205 L 1260.361 205 1251.141 215.500 C 1246.070 221.275, 1241.263 226, 1240.460 226 C 1239.225 226, 1239 222.684, 1239 204.500 L 1239 183 1233.500 183 L 1228 183 1228 221.500 M 1059 223.948 L 1059 260 1064.500 260 L 1070 260 1070 238.500 C 1070 221.201, 1070.262 217, 1071.339 217 C 1072.076 217, 1073.229 218.238, 1073.901 219.750 C 1074.574 221.262, 1078.557 228.912, 1082.753 236.750 C 1090.035 250.352, 1090.522 251, 1093.464 251 C 1096.456 251, 1096.798 250.495, 1105 234 C 1109.649 224.650, 1114.026 217, 1114.726 217 C 1115.718 217, 1116 221.755, 1116 238.500 L 1116 260 1121.500 260 L 1127 260 1127 224 L 1127 188 1122.004 188 L 1117.009 188 1105.967 210.066 C 1097.887 226.214, 1094.505 232.047, 1093.358 231.816 C 1092.468 231.637, 1086.930 222.204, 1080.548 210 L 1069.306 188.500 1064.153 188.198 L 1059 187.895 1059 223.948 M 1152.205 206.139 C 1145.982 208.530, 1139.721 215.615, 1137.913 222.312 C 1136.224 228.565, 1137.218 241.654, 1139.755 246.568 C 1145.356 257.418, 1158.566 263.192, 1170.321 259.928 C 1173.765 258.971, 1182.060 252.704, 1181.959 251.134 C 1181.937 250.785, 1180.624 248.986, 1179.042 247.136 L 1176.165 243.773 1172.799 246.340 C 1170.948 247.752, 1167.563 249.206, 1165.276 249.572 C 1157.812 250.765, 1149 244.552, 1149 238.096 C 1149 236.046, 1149.393 236, 1167 236 L 1185 236 1185 231.182 C 1185 222.952, 1182.331 216.052, 1177.139 210.863 C 1170.074 203.800, 1162.182 202.305, 1152.205 206.139 M 1213.419 205.075 C 1211.724 205.567, 1209.517 206.877, 1208.514 207.985 C 1205.994 210.769, 1204 210.532, 1204 207.448 C 1204 204.997, 1203.791 204.908, 1198.750 205.198 L 1193.500 205.500 1193.322 225 C 1193.224 235.725, 1193.383 247.988, 1193.676 252.250 L 1194.208 260 1199.604 260 L 1205 260 1205.022 243.750 C 1205.040 230.102, 1205.340 226.847, 1206.895 223.424 C 1208.875 219.065, 1213.625 216, 1218.401 216 C 1220.911 216, 1221 215.794, 1221 210 C 1221 203.372, 1220.470 203.028, 1213.419 205.075 M 1292.748 205.373 C 1287.177 207.441, 1282.383 211.491, 1279.322 216.714 C 1277.059 220.575, 1276.528 222.849, 1276.178 230.167 C 1275.640 241.417, 1277.956 247.814, 1284.927 254.335 C 1289.338 258.461, 1295.652 261, 1301.500 261 C 1306.179 261, 1313.549 258.456, 1316.579 255.797 C 1320.690 252.187, 1320.789 251.092, 1317.375 247.034 C 1315.007 244.219, 1314.589 244.062, 1313.089 245.420 C 1310.851 247.445, 1304.581 250, 1301.848 250 C 1297.866 250, 1291.382 246.124, 1289.491 242.613 C 1286.083 236.286, 1286.816 236, 1306.469 236 L 1324 236 1323.988 232.250 C 1323.971 226.747, 1321.487 218.334, 1318.585 213.949 C 1313.381 206.085, 1301.474 202.133, 1292.748 205.373 M 1329 210 L 1329 215 1340 215 C 1350.088 215, 1351 215.155, 1351 216.875 C 1351 217.906, 1345.825 226.004, 1339.500 234.871 C 1328.922 249.700, 1328 251.355, 1328 255.497 L 1328 260 1348.500 260 L 1369 260 1369 255 L 1369 250 1356 250 C 1345.348 250, 1343 249.740, 1343 248.559 C 1343 247.766, 1343.405 246.867, 1343.901 246.561 C 1344.820 245.993, 1363.074 220.828, 1366.250 215.749 C 1367.213 214.211, 1368 211.163, 1368 208.976 L 1368 205 1348.500 205 L 1329 205 1329 210 M 1377 232.500 L 1377 260 1382.500 260 L 1388 260 1388 232.500 L 1388 205 1382.500 205 L 1377 205 1377 232.500 M 1156.316 215.943 C 1152.050 217.880, 1149 222.052, 1149 225.950 C 1149 227.903, 1149.569 228, 1161.031 228 C 1174.633 228, 1175.327 227.600, 1172.406 221.443 C 1171.193 218.886, 1169.395 217.175, 1166.576 215.895 C 1161.547 213.611, 1161.452 213.612, 1156.316 215.943 M 1291.533 218.533 C 1289.060 221.007, 1288 222.966, 1288 225.065 L 1288 228.063 1299.750 227.782 L 1311.500 227.500 1311.823 224.687 C 1312.071 222.515, 1311.313 221.088, 1308.501 218.437 C 1305.372 215.485, 1304.166 215, 1299.962 215 C 1295.692 215, 1294.615 215.451, 1291.533 218.533 M 1552.455 291.455 C 1547.591 296.318, 1550.800 305, 1557.462 305 C 1562.534 305, 1565.455 302.077, 1565.455 297 C 1565.455 293.790, 1564.898 292.336, 1563.116 290.893 C 1559.851 288.249, 1555.427 288.482, 1552.455 291.455 M 1806.635 291.073 C 1801.089 295.435, 1804.526 305, 1811.640 305 C 1818.258 305, 1821.613 295.804, 1816.686 291.174 C 1813.773 288.438, 1810.033 288.400, 1806.635 291.073 M 1511.560 296.028 C 1500.808 297.901, 1494 306.306, 1494 317.707 C 1494 330.408, 1500.358 335.919, 1520.173 340.396 C 1524.789 341.438, 1529 345.751, 1529 349.434 C 1529 358.253, 1514.909 360.090, 1502.213 352.925 C 1499.235 351.244, 1496.656 350.011, 1496.483 350.184 C 1496.309 350.358, 1495.199 352.958, 1494.014 355.963 C 1491.505 362.331, 1491.488 362.306, 1501 366.863 C 1505.863 369.193, 1507.715 369.498, 1517 369.499 C 1526.705 369.500, 1527.862 369.288, 1532.272 366.695 C 1543.195 360.275, 1546.143 346.226, 1538.773 335.722 C 1536.336 332.249, 1529.712 328.863, 1520 326.127 C 1510.493 323.449, 1507.591 321.349, 1507.203 316.869 C 1506.497 308.722, 1518.361 305.272, 1529.518 310.380 C 1532.650 311.813, 1535.580 312.759, 1536.030 312.482 C 1537.277 311.711, 1540.226 302.175, 1539.554 301.087 C 1538.487 299.361, 1528.625 296.247, 1522.500 295.702 C 1519.200 295.408, 1514.277 295.555, 1511.560 296.028 M 1625 305.800 C 1625 312.297, 1623.909 314, 1619.748 314 C 1616.935 314, 1616.900 314.073, 1617.198 319.250 C 1617.471 323.993, 1617.742 324.533, 1620 324.846 C 1624.771 325.506, 1625 326.298, 1625 342.155 C 1625 358.732, 1625.781 361.955, 1630.829 366.203 C 1635.752 370.345, 1646.769 371.083, 1651.545 367.590 C 1653.131 366.431, 1653.153 365.959, 1651.801 361.913 C 1650.335 357.525, 1650.299 357.500, 1645.595 357.500 C 1638.445 357.500, 1637.247 354.803, 1637.100 338.372 C 1637.029 330.469, 1637.369 326.938, 1638.275 326.186 C 1638.977 325.604, 1641.789 324.987, 1644.525 324.814 L 1649.500 324.500 1649.602 319.250 L 1649.704 314 1644.552 314 C 1641.718 314, 1638.860 313.460, 1638.200 312.800 C 1637.540 312.140, 1637 308.990, 1637 305.800 L 1637 300 1631 300 L 1625 300 1625 305.800 M 1556.750 313.735 L 1552 314.110 1552 341.555 L 1552 369 1558 369 L 1564 369 1564 341 C 1564 319.171, 1563.725 313.040, 1562.750 313.180 C 1562.063 313.279, 1559.362 313.529, 1556.750 313.735 M 1583.008 315.183 C 1576.718 318.428, 1573.999 322.871, 1574.004 329.898 C 1574.006 333.617, 1574.640 336.537, 1575.889 338.586 C 1578.027 342.091, 1584.369 345.408, 1591 346.490 C 1599.022 347.798, 1602 349.514, 1602 352.828 C 1602 355.148, 1601.368 356.019, 1598.964 357.015 C 1594.890 358.703, 1585.843 357.695, 1581.369 355.055 C 1579.431 353.912, 1577.466 353.212, 1577.002 353.499 C 1576.538 353.786, 1575.362 356.103, 1574.390 358.648 C 1572.629 363.259, 1572.631 363.283, 1574.906 365.125 C 1578.361 367.923, 1584.627 369.358, 1593.500 369.385 C 1605.746 369.423, 1612.816 364.826, 1614.525 355.716 C 1616.203 346.773, 1612.094 339.911, 1603.663 337.575 C 1600.824 336.789, 1595.961 335.439, 1592.858 334.576 C 1587.152 332.989, 1585.472 331.240, 1586.511 327.967 C 1587.858 323.721, 1598.992 322.876, 1605.979 326.489 L 1609.066 328.086 1610.413 324.793 C 1613.363 317.584, 1613.340 317.230, 1609.801 315.358 C 1607.538 314.161, 1603.512 313.495, 1597 313.239 C 1588.594 312.909, 1586.983 313.132, 1583.008 315.183 M 1670.500 314.655 C 1665.608 317.223, 1659.896 323.185, 1657.716 328 C 1656.197 331.354, 1655.664 334.676, 1655.622 341.047 C 1655.574 348.423, 1655.946 350.369, 1658.336 355.255 C 1660.923 360.542, 1665.374 365.071, 1670.756 367.893 C 1674.217 369.709, 1684.958 370.375, 1689.763 369.072 C 1694.141 367.885, 1701 362.719, 1701 360.609 C 1701 359.957, 1699.695 357.866, 1698.100 355.962 L 1695.200 352.500 1691.850 354.967 C 1685.112 359.931, 1673.852 357.698, 1670.081 350.652 C 1667.253 345.366, 1668.348 345, 1686.969 345 L 1704 345 1703.990 338.250 C 1703.974 327.225, 1698.580 318.228, 1689.782 314.553 C 1684.966 312.541, 1674.421 312.597, 1670.500 314.655 M 1731.089 314.824 C 1727.693 316.114, 1726.580 316.212, 1726.256 315.250 C 1725.981 314.438, 1723.758 314, 1719.917 314 L 1714 314 1714 341.500 L 1714 369 1720 369 L 1726 369 1726.022 352.750 C 1726.041 338.953, 1726.331 335.868, 1727.943 332.316 C 1730.185 327.379, 1734.735 324.563, 1738.969 325.493 C 1745.501 326.928, 1747 331.996, 1747 352.649 L 1747 369 1752.861 369 L 1758.721 369 1759.352 363.750 C 1759.699 360.863, 1759.987 353.168, 1759.991 346.651 C 1760.001 332.936, 1761.255 329.056, 1766.478 326.577 C 1770.441 324.697, 1771.153 324.657, 1774.399 326.136 C 1778.912 328.192, 1780 333.220, 1780 352.020 L 1780 369 1786.500 369 L 1793 369 1792.994 349.750 C 1792.991 339.163, 1792.517 328.800, 1791.940 326.723 C 1790.732 322.372, 1785.974 316.555, 1781.901 314.449 C 1778.368 312.622, 1768.943 312.574, 1764.718 314.362 C 1762.948 315.111, 1760.643 316.686, 1759.595 317.862 C 1757.202 320.547, 1755.813 320.555, 1753.407 317.898 C 1748.797 312.803, 1739.702 311.551, 1731.089 314.824 M 1805 341.500 L 1805 369 1811.500 369 L 1818 369 1818 341.500 L 1818 314 1811.500 314 L 1805 314 1805 341.500 M 1674.500 325.841 C 1671.039 327.956, 1668.642 331.898, 1669.163 334.619 C 1669.487 336.307, 1670.678 336.529, 1680.762 336.783 C 1691.648 337.057, 1692 336.999, 1692 334.937 C 1692 331.883, 1689.177 327.536, 1685.960 325.636 C 1682.337 323.495, 1678.218 323.569, 1674.500 325.841" stroke="none" fill="#000000" fill-rule="evenodd"/><path d="M 240.667 30.667 C 240.300 31.033, 240 32.158, 240 33.167 C 240 35.409, 238.680 35.492, 235.556 33.445 C 233.961 32.400, 231.428 31.989, 227.841 32.195 C 223.174 32.461, 222.460 32.784, 222.180 34.750 C 221.813 37.335, 220.534 37.520, 217 35.500 C 211.883 32.575, 204 34.183, 204 38.152 C 204 39.862, 203.599 40.102, 201.750 39.495 C 197.477 38.093, 191.206 37.819, 189.107 38.943 C 187.839 39.621, 187 41.052, 187 42.535 C 187 45.237, 185.939 45.603, 183.150 43.862 C 180.909 42.462, 172.635 43.530, 171.065 45.422 C 169.714 47.049, 170.708 50, 172.607 50 C 173.373 50, 174 50.675, 174 51.500 C 174 53.276, 171.343 53.530, 170.770 51.809 C 170.538 51.114, 167.690 50.448, 163.923 50.208 C 158.458 49.860, 157.092 50.118, 154.986 51.898 C 152.657 53.866, 152.610 54.085, 154.250 55.360 C 156.848 57.380, 156.517 59.417, 153.750 58.436 C 152.512 57.997, 149.150 57.607, 146.277 57.569 C 142.091 57.514, 140.603 57.958, 138.777 59.808 C 136.638 61.976, 136.606 62.194, 138.250 63.418 C 141.593 65.906, 140.194 66.785, 133.719 66.265 C 127.950 65.802, 127.170 65.986, 124.158 68.520 C 121.848 70.464, 121.193 71.593, 121.940 72.340 C 124.412 74.812, 123.014 76, 117.635 76 C 110.570 76, 106.579 78.809, 107.525 83.115 C 108.118 85.813, 107.957 86, 105.047 86 C 101.213 86, 95.984 88.107, 94.060 90.426 C 92.917 91.805, 92.866 92.555, 93.810 94.068 C 95.758 97.187, 95.208 98, 91.148 98 C 84.288 98, 76.546 105.284, 81.913 106.688 C 85.869 107.722, 84.311 110, 79.648 110 C 75.160 110, 69.745 112.801, 67.616 116.222 C 65.881 119.012, 67.971 119.991, 75.922 120.112 C 83.084 120.221, 83.322 120.144, 86.872 116.559 C 90.224 113.173, 90.367 112.795, 88.750 111.587 C 85.735 109.335, 86.730 108, 91.423 108 C 98.437 108, 105.577 100.748, 100 99.290 C 98.900 99.002, 98 98.144, 98 97.383 C 98 96.352, 99.605 96, 104.313 96 C 109.983 96, 110.911 95.703, 113.422 93.081 C 116.604 89.760, 116.265 88.437, 111.989 87.497 C 110.260 87.118, 109 86.197, 109 85.312 C 109 84.180, 109.650 83.946, 111.501 84.411 C 118.764 86.234, 122.589 86.189, 126.025 84.239 C 128.965 82.572, 129.461 81.786, 129.246 79.134 C 128.993 76.002, 128.996 76, 134.046 76 C 136.825 76, 140.427 75.313, 142.050 74.474 C 145.219 72.836, 145.939 70.297, 143.500 69.362 C 142.675 69.045, 142 68.107, 142 67.276 C 142 66.173, 142.605 65.953, 144.250 66.457 C 150.392 68.343, 155.481 68.212, 158.157 66.099 C 159.919 64.708, 160.645 63.357, 160.313 62.087 C 159.852 60.326, 160.280 60.210, 165.656 60.636 C 173.191 61.233, 176.630 59.581, 176.193 55.572 C 175.910 52.972, 176.092 52.806, 178.560 53.426 C 185.091 55.065, 187.175 55.170, 189.994 54.002 C 193.137 52.701, 194.251 49, 191.500 49 C 190.675 49, 190 48.325, 190 47.500 C 190 46.675, 190.675 46, 191.500 46 C 192.325 46, 193 46.643, 193 47.428 C 193 48.403, 194.688 49.067, 198.322 49.521 C 206.806 50.581, 208.159 50.103, 210.672 45.161 C 210.767 44.974, 213.242 45.351, 216.172 45.998 C 222.574 47.412, 227 46.196, 227 43.025 C 227 40.655, 228.710 40.466, 231.441 42.532 C 232.582 43.395, 235.571 44, 238.691 44 C 243.333 44, 244 43.749, 244 42 C 244 39.474, 245.014 39.486, 249.384 42.064 C 254.166 44.886, 260.366 44.444, 260.820 41.250 C 261.231 38.351, 262.510 38.410, 266.182 41.500 C 268.471 43.426, 270.284 44, 274.077 44 C 277.786 44, 279 43.630, 279 42.500 C 279 40.383, 280.360 40.626, 284.595 43.500 C 289.356 46.731, 296 47.022, 296 44 C 296 41.198, 297.717 41.510, 300.501 44.819 C 303.080 47.883, 309.889 50.640, 312.450 49.657 C 313.593 49.219, 313.869 48.325, 313.416 46.522 C 312.936 44.609, 313.172 44, 314.392 44 C 315.276 44, 316 44.623, 316 45.384 C 316 46.145, 317.801 48.395, 320.003 50.384 C 323.003 53.094, 324.886 54, 327.522 54 C 330.773 54, 330.991 53.812, 330.411 51.500 C 329.463 47.724, 332.331 48.302, 334.070 52.237 C 335.541 55.568, 341.934 59.953, 345.361 59.984 C 346.949 59.998, 347.126 59.485, 346.566 56.500 C 346.063 53.819, 346.246 53, 347.346 53 C 348.137 53, 349.087 54.210, 349.458 55.689 C 350.426 59.544, 353.700 63.794, 357.029 65.515 C 360.985 67.561, 363 67.387, 363 65 C 363 62.202, 365.656 62.494, 366.378 65.372 C 367.157 68.475, 374.421 75, 377.097 75 C 379.042 75, 379.138 74.638, 378.470 69.785 C 377.659 63.882, 374.477 58.198, 370.543 55.620 C 366.428 52.924, 364.443 53.844, 364.793 58.285 C 365.216 63.634, 362.760 63.095, 361.101 57.476 C 358.788 49.641, 348 43.074, 348 49.500 C 348 52.707, 345.269 52.838, 344.072 49.688 C 342.632 45.902, 336.320 41, 332.886 41 C 330.023 41, 329.880 41.179, 330.500 44 C 331.015 46.345, 330.814 47, 329.579 47 C 328.711 47, 328 46.413, 328 45.696 C 328 44.182, 322.505 38.755, 319.316 37.120 C 316.255 35.551, 313.042 35.726, 312.362 37.500 C 311.525 39.681, 309.671 39.343, 307.027 36.529 C 302.856 32.089, 294 30.755, 294 34.567 C 294 36.694, 292.283 36.318, 288.368 33.331 C 283.635 29.722, 276.658 29.389, 276.180 32.750 C 275.769 35.649, 274.490 35.590, 270.818 32.500 C 268.529 30.574, 266.716 30, 262.923 30 C 258.667 30, 258 30.271, 258 32 C 258 34.516, 256.896 34.517, 252.774 32.004 C 249.627 30.085, 242.082 29.252, 240.667 30.667 M 246 60.374 C 246 60.580, 246.675 62.662, 247.500 65 C 249.926 71.876, 249.509 73.451, 244 78.195 C 241.251 80.563, 239.001 82.818, 239 83.206 C 239 83.595, 242.261 84.045, 246.246 84.206 L 253.491 84.500 255.791 90.962 C 257.056 94.517, 258.320 97.654, 258.600 97.933 C 259.377 98.710, 260.880 95.942, 262.093 91.500 C 263.842 85.099, 265.390 84, 272.655 84 C 276.145 84, 279 83.662, 279 83.250 C 279.001 82.838, 276.674 80.448, 273.830 77.941 L 268.660 73.381 269.903 68.941 C 272.882 58.300, 272.564 57.947, 265 63.500 C 262.378 65.425, 259.841 67, 259.363 67 C 258.885 67, 256.278 65.425, 253.571 63.500 C 249.322 60.479, 246 59.108, 246 60.374 M 381.443 69.197 C 382.160 75.539, 384.298 79.694, 388.278 82.482 C 391.633 84.832, 394 84.426, 394 81.500 C 394 77.217, 396.678 78.586, 397.422 83.250 C 398.170 87.940, 403.116 94, 406.196 94 C 407.718 94, 408 93.133, 408 88.460 C 408 82.096, 405.330 75.918, 401.495 73.405 C 398.733 71.595, 396 72.124, 396 74.469 C 396 77.366, 393.249 75.996, 392.605 72.777 C 391.773 68.613, 386.359 63, 383.175 63 C 380.784 63, 380.754 63.107, 381.443 69.197 M 178.872 78.577 C 175.171 84.697, 176.435 84.338, 165.250 82.453 C 162.857 82.050, 161 82.131, 161 82.640 C 161 83.138, 162.354 85.187, 164.010 87.196 C 168.360 92.474, 168.753 95.847, 165.598 100.845 C 163.313 104.464, 162.227 108, 163.401 108 C 163.621 108, 166.209 106.879, 169.151 105.510 C 172.093 104.140, 175.024 103.015, 175.663 103.010 C 176.303 103.004, 178.864 105.126, 181.355 107.725 C 183.845 110.324, 186.127 112.206, 186.426 111.907 C 186.725 111.609, 187.314 108.293, 187.735 104.539 C 188.242 100.015, 189.006 97.483, 190 97.030 C 195.308 94.614, 199.006 92.361, 199.076 91.500 C 199.121 90.950, 196.985 89.888, 194.329 89.139 C 185.734 86.718, 185.001 86.257, 184.989 83.271 C 184.972 78.941, 183.816 73, 182.991 73 C 182.580 73, 180.727 75.510, 178.872 78.577 M 333.345 80.171 L 332.500 87.342 325.687 88.921 C 321.939 89.789, 318.872 90.900, 318.870 91.390 C 318.868 91.879, 321.709 93.679, 325.183 95.390 L 331.500 98.500 331.151 105.750 C 330.960 109.737, 331.191 113, 331.666 113 C 332.141 113, 334.492 110.975, 336.891 108.500 C 339.289 106.025, 342.035 104, 342.992 104 C 343.950 104, 347.054 104.964, 349.890 106.143 C 352.726 107.322, 355.310 108.024, 355.631 107.702 C 355.952 107.381, 354.816 104.675, 353.107 101.688 C 351.398 98.701, 350 95.476, 350 94.521 C 350 93.567, 351.807 90.517, 354.016 87.742 C 356.225 84.968, 357.822 82.488, 357.564 82.231 C 357.307 81.974, 354.162 82.347, 350.574 83.060 C 344.586 84.250, 343.886 84.206, 342.026 82.523 C 340.912 81.515, 340 80.267, 340 79.749 C 340 78.399, 336.022 73, 335.027 73 C 334.566 73, 333.809 76.227, 333.345 80.171 M 411.607 84.582 C 410.817 86.640, 410.833 91.914, 411.641 95.953 C 412.386 99.678, 417.944 106, 420.474 106 C 422.009 106, 422.170 105.072, 421.851 98.050 C 421.511 90.561, 421.290 89.895, 418.049 86.550 C 414.295 82.677, 412.543 82.142, 411.607 84.582 M 426 103.423 C 426 111.082, 426.241 112.133, 428.658 115.005 C 430.965 117.747, 431.756 118.081, 434.658 117.536 C 437.797 116.947, 438.001 117.079, 438.016 119.705 C 438.048 125.023, 445.417 134.808, 446.712 131.250 C 446.962 130.563, 447.747 130, 448.456 130 C 449.274 130, 449.923 131.844, 450.230 135.047 C 450.592 138.813, 451.433 140.843, 453.545 143.047 C 456.995 146.648, 457.781 146.719, 458.589 143.500 C 458.934 142.125, 459.783 141, 460.475 141 C 461.414 141, 461.605 142.785, 461.228 148.051 C 460.750 154.736, 460.869 155.254, 463.528 158.029 C 465.616 160.209, 466.926 160.806, 468.666 160.369 C 470.913 159.805, 471 160.001, 471 165.669 C 471 172.705, 472.863 176, 476.842 176 C 479.503 176, 479.569 176.143, 479.535 181.790 C 479.490 189.185, 481.958 193.668, 485.020 191.755 C 486.109 191.075, 487 189.952, 487 189.259 C 487 188.567, 487.675 188, 488.500 188 C 489.325 188, 490 188.675, 490 189.500 C 490 190.325, 489.635 191, 489.189 191 C 487.843 191, 485.750 200.867, 486.477 203.782 C 487.260 206.919, 489.761 210, 491.523 210 C 492.368 210, 492.701 212.081, 492.618 216.845 C 492.487 224.469, 493.783 227.131, 497.195 226.239 C 499.048 225.754, 499.223 225.989, 498.584 228.092 C 496.113 236.221, 497.124 244, 500.652 244 C 501.867 244, 502.083 244.636, 501.585 246.750 C 499.941 253.727, 499.872 257.539, 501.355 259.500 C 502.833 261.456, 502.955 261.414, 506.871 257.608 C 511.893 252.727, 513.204 249.590, 512.811 243.396 C 512.544 239.193, 512.182 238.455, 510.250 238.180 C 507.644 237.810, 507.599 237.528, 509.199 231.544 C 510.222 227.721, 510.151 226.539, 508.716 223.530 C 507.669 221.336, 506.320 220, 505.150 220 C 503.442 220, 503.313 219.365, 503.756 213.163 C 504.328 205.167, 503.109 202, 499.456 202 C 497.056 202, 497.001 201.842, 497.608 196.676 C 498.480 189.255, 496.152 184.588, 492.029 185.494 L 489.179 186.120 489.684 180.310 C 489.962 177.114, 489.704 173.251, 489.110 171.724 C 487.753 168.237, 485.119 167.117, 483.495 169.338 C 481.100 172.614, 480.220 171.130, 480.737 164.686 C 481.114 159.995, 480.821 157.554, 479.596 155.186 C 477.564 151.255, 474.315 150.895, 473.411 154.500 C 473.066 155.875, 472.269 157, 471.642 157 C 470.882 157, 470.500 154.334, 470.500 149.023 C 470.500 141.608, 470.302 140.850, 467.695 138.273 C 465.080 135.688, 464.800 135.619, 463.584 137.250 C 461.229 140.409, 460 139.250, 460 133.868 C 460 127.462, 456.876 121.733, 453.635 122.196 C 452.303 122.385, 451.380 123.347, 451.180 124.750 C 451.005 125.987, 450.268 127, 449.543 127 C 448.617 127, 448.109 124.935, 447.833 120.049 C 447.515 114.420, 446.984 112.612, 445.046 110.549 C 442.408 107.741, 439 107.150, 439 109.500 C 439 110.325, 438.384 111, 437.630 111 C 436.744 111, 436.077 109.379, 435.743 106.414 C 435.358 102.996, 434.384 100.960, 431.917 98.414 C 426.757 93.090, 426 93.731, 426 103.423 M 234.500 111.183 C 211.754 115.491, 197.833 119.920, 182 127.887 C 162.673 137.612, 151.104 146.133, 134.716 162.717 C 122.358 175.223, 117.623 181.270, 109.115 195.414 C 97.103 215.383, 89.880 235.345, 85.384 261 C 83.565 271.376, 83.138 308.153, 84.751 315.500 C 85.355 318.250, 86.386 323.425, 87.043 327 C 90.915 348.075, 100.338 370.837, 113.602 391.157 C 119.601 400.346, 134.067 417.051, 143.784 426.009 C 153.444 434.915, 171.561 447.172, 184 453.216 C 193.297 457.734, 211.547 464.284, 219.500 465.956 C 238.906 470.038, 241.027 470.272, 259 470.306 C 270.243 470.328, 280.246 469.825, 284.500 469.025 C 297.843 466.515, 312.499 462.823, 316.684 460.916 C 318.998 459.862, 321.300 459, 321.801 459 C 322.769 459, 342.832 448.906, 349.418 445.106 C 363.260 437.119, 386.667 415.559, 398.254 400.124 C 408.434 386.563, 414.116 376.248, 423.935 353.500 C 425.710 349.388, 426.936 345.216, 429.371 335 C 433.765 316.570, 434.344 311.242, 434.369 289 C 434.390 270.773, 434.058 265.808, 432.184 256.384 C 426.685 228.719, 416.436 204.467, 400.985 182.558 C 395.855 175.284, 378.582 157.051, 370.225 150.088 C 346.089 129.979, 319.204 117.495, 288 111.907 C 276.420 109.833, 243.948 109.394, 234.500 111.183 M 248.500 114.550 C 247.950 114.766, 243.450 115.378, 238.500 115.911 C 224.745 117.392, 210.702 120.935, 198.500 126.003 C 182.428 132.677, 176.899 135.541, 166.198 142.734 C 133.403 164.774, 109.549 196.142, 97.553 233 C 86.958 265.553, 85.298 297.343, 92.543 328.911 C 99.952 361.192, 115.641 389.648, 140.477 415.855 C 169.165 446.125, 216.598 466, 260.153 466 C 288.380 466, 318.974 457.349, 343.638 442.393 C 373.117 424.518, 395.002 401.052, 410.701 370.487 C 420.606 351.202, 424.805 337.297, 428.993 309.918 C 430.741 298.490, 430.232 275.228, 427.948 262.203 C 425.858 250.278, 425.498 248.772, 421.803 236.500 C 411.130 201.046, 389.299 169.961, 359.363 147.587 C 355.987 145.064, 352.972 143, 352.663 143 C 352.353 143, 350.150 141.684, 347.767 140.076 C 329.516 127.758, 304.926 119.030, 278.500 115.490 C 268.457 114.144, 250.934 113.595, 248.500 114.550 M 406.240 124.750 L 403.500 130.500 396.250 130.203 C 392.262 130.039, 389 130.285, 389 130.750 C 389 131.214, 390.800 133.352, 393 135.500 C 397.365 139.762, 398.060 143.016, 395.627 147.800 C 394.871 149.285, 393.941 151.512, 393.559 152.750 C 392.616 155.809, 395.255 155.704, 400.500 152.474 C 402.700 151.119, 405.196 150.008, 406.047 150.005 C 406.898 150.002, 409.352 151.800, 411.500 154 C 417.182 159.819, 418.058 159.381, 417.754 150.867 L 417.500 143.735 422.213 140.617 C 428.303 136.589, 428.059 134.659, 421.375 133.985 C 415.137 133.356, 413.228 131.890, 412.469 127.150 C 410.840 116.970, 410.086 116.680, 406.240 124.750 M 106.592 122.944 C 106.266 124.625, 105.740 127.345, 105.423 128.989 C 104.689 132.792, 103.723 133.365, 97 133.989 C 90.108 134.629, 89.819 136.375, 96 140.025 L 100.500 142.683 100.263 150.341 C 100.103 155.491, 100.394 158, 101.151 158 C 101.770 158, 104.229 156.200, 106.616 154 C 109.003 151.800, 111.521 150, 112.212 150 C 112.903 150, 115.811 151.227, 118.675 152.726 C 121.538 154.225, 124.150 155.184, 124.477 154.856 C 124.805 154.528, 124.157 151.935, 123.037 149.093 C 121.916 146.251, 121 143.136, 121 142.171 C 121 141.206, 123.025 138.429, 125.500 136 C 127.975 133.571, 130 131.174, 130 130.674 C 130 130.149, 126.909 130.055, 122.679 130.451 C 114.447 131.222, 113.908 130.926, 111.648 124.395 C 109.945 119.471, 107.405 118.742, 106.592 122.944 M 285.556 122.910 C 285.247 123.410, 285.270 124.541, 285.609 125.422 C 285.947 126.304, 285.762 127.582, 285.197 128.263 C 284.176 129.494, 281 144.511, 281 148.110 C 281 149.419, 281.712 150, 283.317 150 C 285.376 150, 285.784 149.250, 286.991 143.250 C 287.737 139.537, 288.393 134.164, 288.448 131.309 C 288.503 128.454, 288.871 125.796, 289.266 125.401 C 290.049 124.618, 288.256 122, 286.937 122 C 286.486 122, 285.865 122.409, 285.556 122.910 M 60.992 125.250 C 53.664 130.240, 54.247 134, 62.346 134 C 68.870 134, 74.382 131.873, 76.590 128.503 C 79.325 124.328, 77.898 123, 70.679 123 C 65.705 123, 63.566 123.497, 60.992 125.250 M 697.355 125.039 C 686.762 127.136, 676.623 134.960, 671.792 144.766 L 668.500 151.448 668.184 174.628 L 667.869 197.809 816.684 198.192 C 905.181 198.420, 966.007 198.206, 966.750 197.665 C 968.333 196.513, 968.502 158.475, 966.950 152.500 C 964.594 143.427, 956.407 132.858, 948.612 128.829 C 939.067 123.894, 941.803 123.993, 817.701 124.110 C 753.791 124.170, 699.635 124.588, 697.355 125.039 M 241.213 126.822 C 240.268 127.440, 240.003 130.428, 240.213 138.070 C 240.540 149.943, 240.312 149.691, 249.690 148.520 C 254.018 147.979, 255.052 147.504, 254.798 146.171 C 254.586 145.053, 253.163 144.335, 250.500 144 C 245.078 143.319, 244.395 140.392, 249.438 139.446 C 255.125 138.379, 253.904 134, 247.918 134 C 244.778 134, 245.742 131.363, 249.250 130.357 C 254.402 128.880, 253.410 126.547, 247.500 126.240 C 244.750 126.097, 241.921 126.359, 241.213 126.822 M 260.500 127 C 259.670 128.343, 260.787 130, 262.524 130 C 265.102 130, 266.047 133.643, 265.368 140.955 L 264.713 148 267.356 148 C 269.943 148, 270 147.861, 270 141.500 C 270 134.828, 270.843 133.137, 275.516 130.436 C 276.694 129.755, 277.124 128.765, 276.710 127.686 C 276.183 126.313, 274.677 126, 268.590 126 C 264.481 126, 260.840 126.450, 260.500 127 M 226.677 129.750 C 226.434 130.162, 225.922 131.963, 225.538 133.750 C 224.702 137.649, 223.454 137.847, 220.821 134.500 C 218.845 131.987, 214 130.990, 214 133.097 C 214 133.700, 215.774 136.208, 217.941 138.671 C 220.109 141.133, 222.509 145.028, 223.275 147.324 C 224.263 150.289, 225.223 151.500, 226.583 151.500 C 228.263 151.500, 228.466 150.854, 228.223 146.282 C 228.062 143.247, 228.585 139.536, 229.473 137.410 C 231.635 132.236, 231.476 129, 229.059 129 C 227.991 129, 226.919 129.338, 226.677 129.750 M 200.480 131.032 C 200.092 131.660, 200.275 132.675, 200.887 133.287 C 201.499 133.899, 202 135.411, 202 136.648 C 202 140.203, 208.092 156.098, 209.690 156.711 C 213.155 158.041, 213.399 155.153, 210.530 146.770 C 208.973 142.221, 207.133 137.825, 206.441 137 C 205.749 136.175, 205.029 134.380, 204.841 133.010 C 204.480 130.377, 201.672 129.103, 200.480 131.032 M 307.200 137.200 C 305.117 139.283, 305.807 144.312, 308.588 147.311 C 312.722 151.769, 309.304 155.395, 304.805 151.324 C 303.361 150.017, 302.687 149.913, 301.749 150.851 C 299.910 152.690, 302.022 155.265, 306.739 156.933 C 310.384 158.222, 311.054 158.195, 313.396 156.660 C 316.970 154.319, 317.021 148.851, 313.500 145.588 C 310.315 142.636, 310.221 140, 313.300 140 C 314.565 140, 316.101 140.501, 316.713 141.113 C 318.037 142.437, 320 141.459, 320 139.476 C 320 136.351, 309.853 134.547, 307.200 137.200 M 50.763 138.565 C 48.193 139.959, 45 144.606, 45 146.950 C 45 148.486, 55.475 148.246, 59.364 146.621 C 62.841 145.168, 67 140.672, 67 138.365 C 67 136.429, 54.414 136.584, 50.763 138.565 M 185 144.357 C 182.525 145.622, 180.367 147.344, 180.205 148.182 C 179.849 150.020, 186.669 164.481, 188.678 166.147 C 189.794 167.074, 190.463 166.966, 191.781 165.648 C 193.167 164.262, 193.246 163.623, 192.230 161.997 C 189.339 157.367, 192.814 154.928, 196.500 159 C 198.447 161.151, 201.486 161.641, 202.518 159.970 C 202.868 159.404, 201.770 157.363, 200.077 155.435 C 198.213 153.312, 197 150.830, 197 149.140 C 197 146.182, 193.416 141.979, 190.936 142.028 C 190.146 142.044, 187.475 143.092, 185 144.357 M 325.562 153.071 C 320.901 157.498, 318.323 160.677, 318.666 161.571 C 319.293 163.205, 322.575 163.496, 323.500 162 C 324.372 160.589, 328.553 160.756, 329.789 162.250 C 330.358 162.938, 330.975 164.850, 331.162 166.500 C 331.403 168.637, 332.098 169.585, 333.579 169.797 C 335.366 170.053, 335.834 169.279, 336.911 164.297 C 337.601 161.109, 338.598 156.533, 339.127 154.128 C 339.926 150.504, 339.800 149.436, 338.390 147.878 C 335.576 144.770, 333.355 145.669, 325.562 153.071 M 44 152.121 C 40.078 153.680, 36 158.121, 36 160.832 C 36 163.252, 36.099 163.280, 42.494 162.683 C 46.066 162.349, 49.916 161.580, 51.048 160.974 C 53.253 159.794, 56.990 154.313, 56.996 152.250 C 57.001 150.726, 47.741 150.633, 44 152.121 M 169.250 154.128 C 167.393 156.018, 167.656 156.983, 171.578 162.678 C 175.745 168.728, 175.896 172.345, 172 172.777 C 169.997 172.999, 168.646 171.942, 165.205 167.462 C 162.443 163.866, 160.306 161.987, 159.217 162.197 C 156.151 162.787, 156.876 165.445, 161.758 171.515 C 166.146 176.972, 166.953 177.528, 170.904 177.813 C 176.653 178.229, 180 175.314, 180 169.891 C 180 164.749, 178.884 162.231, 174.365 157.178 C 171.250 153.695, 170.257 153.103, 169.250 154.128 M 241 157.951 C 228.731 159.797, 216.772 163.489, 205.257 168.983 C 191.736 175.435, 181.520 182.558, 170.276 193.372 C 151.837 211.107, 138.980 235.191, 132.840 263.500 C 130.853 272.659, 131.183 309.412, 133.338 318.852 C 139.376 345.313, 151.159 366.403, 170.891 386.069 C 183.475 398.610, 192.571 405.154, 206.533 411.710 C 244.208 429.400, 284.687 427.717, 321 406.950 C 330.946 401.262, 336.273 397.021, 348.345 385.178 C 377.671 356.408, 391.757 315.286, 386.631 273.409 C 385.034 260.365, 384.067 256.230, 379.285 242 C 368.313 209.350, 339.340 178.998, 306.873 166.139 C 290.833 159.786, 280.999 157.843, 263 157.467 C 253.925 157.278, 244.025 157.496, 241 157.951 M 359.362 158.500 C 359.004 159.431, 357.481 160, 355.343 160 C 348.142 160, 342 165.567, 342 172.093 C 342 175.173, 342.762 176.717, 345.921 180.038 C 350.696 185.057, 353.086 184.999, 357.313 179.762 C 360.251 176.122, 360.283 175.970, 358.510 174.012 C 355.864 171.087, 353 171.377, 353 174.570 C 353 176.662, 352.582 177.080, 350.750 176.820 C 349.010 176.572, 348.427 175.742, 348.180 173.156 C 347.555 166.638, 353.901 163.774, 359.395 168.096 C 360.860 169.248, 362.721 169.937, 363.529 169.627 C 365.222 168.977, 365.459 167.402, 364 166.500 C 362.482 165.562, 362.805 163, 364.441 163 C 367.078 163, 367.157 161.010, 364.560 160.023 C 363.152 159.488, 362 158.588, 362 158.025 C 362 156.451, 360.010 156.809, 359.362 158.500 M 249 161.669 C 243.718 162.045, 233.565 163.831, 230 165.012 C 228.625 165.467, 224.800 166.632, 221.500 167.599 C 198.146 174.446, 172.614 193.386, 158.884 214.049 C 148.048 230.357, 143.173 241.800, 138.445 262.033 C 136.116 272, 135.763 275.659, 135.750 290 C 135.733 308.374, 137.789 320.189, 143.943 337.086 C 149.914 353.480, 163.459 373.746, 176.376 385.612 C 184.563 393.134, 200.285 403.946, 207.540 407.045 C 210.268 408.211, 213.850 409.748, 215.500 410.461 C 224.561 414.381, 237.027 417.420, 250.206 418.923 C 258.667 419.889, 274.573 418.669, 286.500 416.141 C 292.993 414.765, 309.635 408.151, 316.016 404.411 C 324.654 399.349, 340.790 386.999, 346.116 381.375 C 359.465 367.276, 370.115 349.742, 375.977 332.211 C 381.323 316.223, 382.395 309.110, 382.413 289.500 C 382.427 274.079, 382.098 270.139, 380.123 262 C 375.216 241.788, 370.388 230.317, 360.590 215.592 C 340.806 185.859, 306.786 165.503, 271 161.985 C 261.708 161.072, 258.125 161.021, 249 161.669 M 40.564 166.068 C 33.312 167.272, 25.907 173.710, 27.375 177.534 C 27.914 178.939, 28.819 179.104, 32.748 178.515 C 38.760 177.614, 42.080 175.882, 45.429 171.903 C 48.027 168.814, 48.515 165.878, 46.500 165.457 C 45.950 165.342, 43.279 165.617, 40.564 166.068 M 145.200 174.200 C 143.587 175.813, 143.688 178.205, 145.468 180.559 C 147.062 182.666, 147.523 187, 146.154 187 C 145.688 187, 143.820 186.258, 142.002 185.351 C 138.508 183.608, 136.593 184.112, 134.580 187.305 C 133.712 188.680, 134.842 190.301, 140.982 196.482 C 147.552 203.096, 148.615 203.814, 149.913 202.515 C 151.212 201.217, 151.126 200.763, 149.194 198.706 C 146.272 195.597, 146.300 193.550, 149.250 194.464 C 154.913 196.219, 155.978 196.222, 156.645 194.482 C 157.014 193.521, 156.795 191.901, 156.158 190.881 C 154.176 187.708, 154.681 185.668, 157.250 186.464 C 163.222 188.315, 164 188.289, 164 186.238 C 164 184.924, 161.450 182.323, 156.532 178.621 C 148.784 172.789, 147.220 172.180, 145.200 174.200 M 369.385 178.164 C 363.916 182.267, 358 188.420, 358 190.005 C 358 191.907, 365.025 199, 366.909 199 C 367.784 199, 368.040 198.237, 367.664 196.750 C 365.582 188.511, 365.422 189.148, 370.987 183.513 C 375.862 178.577, 376.750 176, 373.576 176 C 372.857 176, 370.972 176.974, 369.385 178.164 M 1608.923 180.923 C 1606.631 183.216, 1606 184.742, 1606 188 C 1606 196.884, 1615.979 201.254, 1622.923 195.411 C 1625.597 193.161, 1626 192.173, 1626 187.866 C 1626 181.090, 1623.015 178, 1616.469 178 C 1612.693 178, 1611.311 178.535, 1608.923 180.923 M 254 182.728 C 254 183.992, 253.438 185.980, 252.750 187.144 C 251.720 188.888, 251.754 189.352, 252.940 189.777 C 253.733 190.061, 255.557 191.582, 256.995 193.156 L 259.610 196.019 261.835 193.009 C 263.059 191.354, 264.770 190, 265.637 190 C 266.761 190, 266.996 189.498, 266.455 188.250 C 266.037 187.287, 265.501 185.134, 265.263 183.464 C 264.843 180.510, 264.686 180.429, 259.416 180.429 C 254.432 180.429, 254 180.612, 254 182.728 M 30.719 181.719 C 26.655 182.332, 20 189.014, 20 192.481 C 20 195.213, 20.094 195.259, 24.500 194.655 C 30.668 193.810, 30.498 195.998, 24.224 198.227 C 18.439 200.282, 13.992 204.667, 13.709 208.596 C 13.542 210.922, 13.947 211.562, 15.750 211.819 C 18.993 212.281, 18.518 214.517, 14.672 216.894 C 12.841 218.025, 10.816 220.108, 10.172 221.522 C 8.632 224.902, 8.675 229.715, 10.250 230.288 C 11.247 230.651, 11.244 231.123, 10.236 232.621 C 9.540 233.655, 8.079 235.850, 6.989 237.500 C 5.899 239.150, 5.006 241.998, 5.004 243.829 C 5 247.009, 5.135 247.129, 8 246.500 C 12.136 245.592, 11.815 247.167, 6.938 251.717 C 3.754 254.687, 2.749 256.451, 2.289 259.880 C 1.828 263.320, 2.055 264.451, 3.351 265.177 C 5.510 266.385, 5.431 267.636, 3 270.727 C 1.612 272.491, 1 274.784, 1 278.214 L 1 283.159 4 282.500 C 5.730 282.120, 7 282.253, 7 282.815 C 7 283.350, 5.650 285.234, 4 287 C 1.434 289.747, 1 290.992, 1 295.606 C 1 300.333, 1.247 301, 3 301 C 5.511 301, 5.511 302.054, 3 306.739 C 0.008 312.322, 0.844 319, 4.535 319 C 6.229 319, 6.500 322.100, 4.943 323.657 C 4.361 324.239, 4.024 327.141, 4.193 330.107 C 4.466 334.901, 4.761 335.537, 6.851 335.833 C 9.384 336.191, 9.384 336.258, 6.870 344.686 C 5.414 349.565, 6.746 353.859, 9.977 354.704 C 11.704 355.156, 11.845 355.859, 11.324 361.430 C 10.629 368.879, 11.904 372, 15.644 372 C 17.983 372, 18.142 372.250, 17.398 374.750 C 15.295 381.808, 17.617 389, 21.998 389 C 23.417 389, 23.671 390.029, 23.593 395.467 C 23.514 400.967, 23.845 402.276, 25.808 404.217 C 27.976 406.362, 28.194 406.394, 29.418 404.750 C 31.335 402.174, 33.384 402.501, 32.553 405.250 C 29.882 414.083, 32.213 422, 37.485 422 C 39.831 422, 40 422.331, 40 426.923 C 40 430.773, 40.570 432.524, 42.613 434.952 C 45.599 438.500, 47.430 437.873, 48.515 432.931 C 48.887 431.240, 49.809 430, 50.696 430 C 51.836 430, 52.048 430.582, 51.518 432.250 C 51.124 433.488, 50.570 437.296, 50.287 440.713 C 49.792 446.681, 49.899 447.053, 53.006 450.159 C 55.953 453.107, 56.349 453.243, 57.480 451.697 C 59.784 448.546, 61 449.792, 61 455.304 C 61 460.019, 61.376 460.972, 64.387 463.891 C 66.504 465.943, 68.026 466.766, 68.446 466.087 C 69.906 463.725, 72 464.999, 72.004 468.250 C 72.010 473.766, 78.066 481.313, 81.021 479.487 C 81.559 479.154, 82 474.893, 82 470.018 C 82 461.940, 81.770 460.880, 79.411 458.077 C 75.790 453.773, 74.252 454.140, 73.448 459.500 C 73.068 462.032, 72.234 464, 71.541 464 C 70.656 464, 70.336 461.636, 70.405 455.589 C 70.491 447.995, 70.264 446.926, 68.076 444.589 C 65.630 441.977, 63 441.154, 63 443 C 63 443.550, 62.325 444, 61.500 444 C 60.378 444, 59.999 442.804, 59.996 439.250 C 59.994 436.245, 59.248 433.279, 57.967 431.177 C 56.222 428.315, 55.547 427.940, 53.108 428.476 L 50.275 429.098 50.353 423.703 C 50.448 417.168, 48.159 413, 44.477 413 C 42.213 413, 42 412.618, 42 408.565 C 42 406.126, 41.557 402.964, 41.015 401.539 C 39.771 398.268, 37.069 397.125, 35.827 399.346 C 34.872 401.051, 32 401.658, 32 400.154 C 32 399.688, 32.729 397.847, 33.619 396.061 C 36.390 390.507, 33.692 381, 29.345 381 C 28.366 381, 28 379.349, 28 374.934 C 28 367.255, 26.788 364.764, 23.460 365.599 C 20.614 366.314, 20.401 365.378, 22.494 361.364 C 24.281 357.937, 24.353 356.312, 22.902 352.149 C 22.082 349.796, 21.197 349, 19.402 349 C 16.603 349, 16.459 348.266, 18.494 344.364 C 21.283 339.016, 19.848 332, 15.965 332 C 13.660 332, 13.518 330.468, 15.500 327 C 16.978 324.415, 17.454 318.347, 16.396 315.589 C 15.977 314.498, 15.056 314.199, 13.396 314.616 C 10.321 315.387, 10.347 314.050, 13.500 309.405 C 14.875 307.379, 16 304.629, 16 303.295 C 16 300.066, 14.278 297, 12.465 297 C 10.516 297, 10.609 295.090, 12.669 292.813 C 13.629 291.752, 14.531 288.641, 14.793 285.485 C 15.213 280.417, 15.086 280, 13.124 280 C 10.329 280, 10.441 278.453, 13.500 274.818 C 15.426 272.529, 16 270.716, 16 266.923 C 16 263.214, 15.630 262, 14.500 262 C 12.345 262, 12.647 260.483, 15.395 257.519 C 17.848 254.872, 19.605 248.787, 18.453 246.924 C 18.089 246.334, 16.551 246.159, 14.905 246.521 C 12.655 247.015, 12 246.803, 12 245.579 C 12 244.711, 12.579 244, 13.288 244 C 13.996 244, 16.064 242.757, 17.884 241.238 C 20.533 239.026, 21.298 237.533, 21.726 233.738 C 22.169 229.807, 21.983 229, 20.630 229 C 18.083 229, 18.674 227.561, 23 223.235 C 26.224 220.011, 27 218.518, 27 215.538 C 27 211.951, 26.911 211.861, 24 212.500 C 21.707 213.004, 21 212.805, 21 211.659 C 21 210.804, 22.295 209.874, 24.012 209.497 C 29.198 208.358, 34.206 199.904, 31.890 196.196 C 30.835 194.506, 31.262 193.715, 35.343 189.805 C 41.083 184.305, 41.633 180.925, 36.750 181.150 C 34.962 181.232, 32.249 181.488, 30.719 181.719 M 1549 222 L 1549 260.081 1557.250 259.790 L 1565.500 259.500 1565.765 253 C 1566.046 246.106, 1567.494 242, 1569.643 242 C 1570.361 242, 1573.672 246.050, 1577 251 L 1583.052 260 1592.526 260 C 1599.452 260, 1601.993 259.664, 1601.975 258.750 C 1601.952 257.545, 1598.981 252.595, 1588.643 236.534 C 1585.088 231.011, 1583.951 228.387, 1584.403 226.744 C 1584.742 225.510, 1588.403 220.488, 1592.538 215.585 C 1596.674 210.682, 1599.895 206.182, 1599.698 205.585 C 1599.489 204.953, 1595.861 204.378, 1591.011 204.207 C 1582.789 203.918, 1582.641 203.955, 1579.262 207.207 C 1577.380 209.018, 1574.263 212.637, 1572.335 215.250 C 1566.477 223.189, 1566.083 222.409, 1565.773 202.250 L 1565.500 184.500 1557.250 184.210 L 1549 183.919 1549 222 M 1423.772 193.712 C 1423.508 196.895, 1423.515 213.130, 1423.789 229.788 L 1424.286 260.076 1432.393 259.788 L 1440.500 259.500 1441.018 247 C 1441.303 240.125, 1441.892 233.938, 1442.327 233.250 C 1442.868 232.395, 1446.083 232, 1452.500 232 C 1458.907 232, 1462.138 232.396, 1462.691 233.250 C 1463.136 233.938, 1463.725 240.125, 1464 247 L 1464.500 259.500 1473 259.500 L 1481.500 259.500 1481.500 224 L 1481.500 188.500 1472.750 188.211 L 1464 187.922 1464 199.761 C 1464 207.636, 1463.598 212.002, 1462.800 212.800 C 1461.079 214.521, 1443.599 214.427, 1442.157 212.689 C 1441.555 211.964, 1440.942 206.270, 1440.785 199.939 L 1440.500 188.500 1432.377 188.212 L 1424.254 187.923 1423.772 193.712 M 52.011 190.750 C 52.017 191.162, 52.692 193.709, 53.511 196.409 C 55.861 204.158, 55.571 205.087, 49.473 209.321 C 46.446 211.422, 44.188 213.495, 44.455 213.928 C 44.723 214.360, 47.501 214.978, 50.629 215.301 C 53.757 215.624, 56.920 216.492, 57.658 217.229 C 58.396 217.967, 59.787 221.030, 60.750 224.035 C 61.712 227.041, 62.946 229.500, 63.491 229.500 C 64.036 229.500, 65.434 227.112, 66.598 224.193 C 67.761 221.275, 69.186 218.414, 69.764 217.836 C 70.342 217.258, 73.782 216.546, 77.408 216.255 C 81.033 215.964, 84 215.433, 84 215.075 C 84 214.717, 81.975 212.731, 79.500 210.662 C 74.548 206.523, 73.852 203.725, 76.506 198.636 C 78.086 195.606, 78.431 192.764, 77.348 191.682 C 76.990 191.323, 74.514 192.598, 71.846 194.515 C 69.178 196.432, 66.238 198, 65.312 198 C 64.386 198, 61.494 196.200, 58.885 194 C 54.393 190.213, 51.987 189.075, 52.011 190.750 M 459.147 194.072 C 453.362 198.678, 452.404 198.653, 445.394 193.712 C 442.994 192.021, 440.718 190.949, 440.336 191.330 C 439.955 191.712, 440.398 194.421, 441.321 197.350 C 443.703 204.905, 443.489 206.117, 439 210.500 C 436.800 212.648, 435 214.765, 435 215.203 C 435 215.641, 437.870 216, 441.378 216 C 448.272 216, 449.397 216.675, 450.560 221.506 C 451.508 225.443, 453.834 230, 454.896 230 C 455.360 230, 456.286 227.863, 456.954 225.250 C 459.281 216.139, 459.126 216.291, 466.929 215.507 C 470.818 215.117, 474 214.407, 474 213.930 C 474 213.453, 471.525 211.235, 468.500 209 C 465.475 206.765, 463 204.348, 463 203.627 C 463 202.907, 463.670 200.109, 464.489 197.409 C 467.173 188.563, 466.552 188.176, 459.147 194.072 M 377.625 197.569 C 369.906 203.206, 368.850 204.801, 371.424 206.937 C 372.563 207.882, 374.015 207.322, 378.674 204.141 C 386.244 198.973, 389.229 195.761, 388.421 193.655 C 387.414 191.032, 385.751 191.634, 377.625 197.569 M 124.035 201.934 C 122.452 204.893, 122.772 206.437, 125.500 209 C 129.448 212.709, 128.726 213.862, 122.250 214.200 C 116.922 214.478, 116.478 214.687, 116.203 217.053 C 115.945 219.261, 117 220.318, 124.013 224.886 C 128.473 227.791, 132.769 229.919, 133.561 229.615 C 135.641 228.817, 135.328 226.246, 133 225 C 129.490 223.121, 130.550 221, 135 221 C 138.206 221, 139 220.638, 139 219.174 C 139 218.170, 137.875 216.292, 136.500 215 C 134.031 212.681, 133.166 210, 134.886 210 C 135.373 210, 137.060 210.672, 138.636 211.494 C 142.316 213.414, 143.638 213.386, 144.410 211.373 C 145.165 209.407, 143.590 207.319, 140.660 206.400 C 139.472 206.028, 135.833 204.436, 132.573 202.862 C 125.541 199.467, 125.366 199.448, 124.035 201.934 M 238.617 206.677 C 234.538 215.231, 235.611 222.933, 242.008 231.009 C 250.245 241.410, 267.249 241.833, 276.699 231.872 C 282.662 225.587, 284.373 217.560, 281.664 208.580 C 279.792 202.376, 278.293 203.063, 277.829 210.338 C 277.390 217.244, 275.107 221.748, 270.145 225.500 C 268.046 227.087, 265.952 227.500, 260 227.500 C 253.567 227.500, 252.028 227.146, 249.186 225.015 C 243.649 220.862, 241.494 216.399, 241.575 209.250 C 241.614 205.813, 241.359 203, 241.008 203 C 240.657 203, 239.581 204.654, 238.617 206.677 M 385 208.800 C 376.539 213.537, 374.074 216.641, 379 216.355 C 380.375 216.275, 382.512 215.885, 383.750 215.488 C 386.716 214.537, 386.744 216.812, 383.827 221.880 C 381.422 226.059, 381.861 229, 384.892 229 C 387.103 229, 401.233 221.629, 402.921 219.595 C 403.746 218.601, 403.624 217.933, 402.436 216.947 C 401.105 215.842, 400.289 215.928, 397.417 217.475 C 395.531 218.490, 393.659 218.992, 393.257 218.590 C 392.855 218.188, 393.671 215.710, 395.072 213.085 C 397.032 209.408, 397.397 207.815, 396.656 206.155 C 396.127 204.970, 395.201 204.009, 394.597 204.021 C 393.994 204.032, 389.675 206.183, 385 208.800 M 1503.867 206.008 C 1498.963 208.599, 1492.616 216.001, 1491.176 220.807 C 1490.529 222.966, 1490 228.407, 1490 232.899 C 1490 239.559, 1490.445 241.937, 1492.411 245.783 C 1497.373 255.493, 1506.904 261, 1518.745 261 C 1525.221 261, 1534.147 257.171, 1536.727 253.285 C 1538.056 251.283, 1537.856 250.799, 1533.952 246.564 C 1529.509 241.744, 1527.971 241.125, 1526.087 243.395 C 1524.330 245.513, 1518.346 246.269, 1514.188 244.900 C 1510.175 243.578, 1508.082 241.487, 1508.032 238.750 C 1508.003 237.155, 1509.411 237, 1523.878 237 C 1536.513 237, 1540 236.705, 1540.956 235.553 C 1542.408 233.803, 1541.470 224.246, 1539.332 219 C 1537.654 214.884, 1530.731 207.519, 1526.596 205.452 C 1522.183 203.245, 1508.461 203.581, 1503.867 206.008 M 1608.667 204.667 C 1608.300 205.033, 1608 217.652, 1608 232.707 L 1608 260.081 1616.175 259.790 L 1624.351 259.500 1624.365 232.961 C 1624.372 218.364, 1624.042 205.877, 1623.630 205.211 C 1622.837 203.927, 1609.877 203.456, 1608.667 204.667 M 1635.452 205.266 C 1635.184 205.962, 1635.086 218.449, 1635.233 233.016 L 1635.500 259.500 1643.500 259.500 L 1651.500 259.500 1652 242.328 C 1652.479 225.865, 1652.600 225.049, 1654.924 222.578 C 1659.449 217.766, 1664.668 219.867, 1666.056 227.059 C 1666.527 229.502, 1666.932 237.931, 1666.956 245.790 L 1667 260.081 1675.250 259.790 L 1683.500 259.500 1684 242.500 C 1684.375 229.738, 1684.874 224.930, 1686 223.213 C 1688.725 219.057, 1694.876 219.115, 1697.219 223.318 C 1697.971 224.667, 1698.638 231.988, 1698.967 242.500 L 1699.500 259.500 1707.500 259.500 L 1715.500 259.500 1715.773 241.232 C 1715.986 226.944, 1715.703 221.785, 1714.472 217.553 C 1711.534 207.445, 1706.965 204, 1696.500 204 C 1689.880 204, 1685.550 205.428, 1683.055 208.434 C 1681.200 210.669, 1679.777 210.399, 1675.500 207 C 1672.204 204.380, 1670.923 204, 1665.396 204 C 1661.468 204, 1657.695 204.654, 1655.450 205.725 C 1652.024 207.359, 1651.780 207.359, 1650.866 205.725 C 1650.096 204.349, 1648.490 204, 1642.919 204 C 1638.210 204, 1635.779 204.412, 1635.452 205.266 M 1509.939 220.061 C 1506.023 223.977, 1507.667 225.468, 1516.261 225.792 C 1523.482 226.065, 1524 225.947, 1524 224.042 C 1524 218.482, 1514.272 215.728, 1509.939 220.061 M 109.422 231.343 C 108.487 233.780, 109.625 234.749, 115.399 236.428 C 121.964 238.336, 125.583 241.039, 124.689 243.367 C 123.590 246.231, 121.002 246.394, 113.743 244.056 C 108.002 242.208, 106.587 242.044, 105.886 243.151 C 104.121 245.936, 105.274 246.957, 112.865 249.326 C 120.760 251.790, 124.436 251.532, 126.949 248.338 C 131.780 242.196, 130.042 236.551, 122.299 233.231 C 115.110 230.148, 110.159 229.422, 109.422 231.343 M 399.656 241.497 C 395.342 242.757, 391.348 244.252, 390.781 244.819 C 388.109 247.491, 393.842 259.005, 397.839 258.996 C 398.753 258.994, 400.973 258.094, 402.774 256.996 C 404.575 255.898, 407.297 255, 408.824 255 C 410.351 255, 412.140 254.460, 412.800 253.800 C 415.673 250.927, 412.811 238.902, 409.301 239.103 C 408.310 239.160, 403.970 240.238, 399.656 241.497 M 197.500 243.002 C 195.300 243.435, 187.650 244.290, 180.500 244.902 C 170.066 245.795, 165.867 245.744, 159.226 244.642 C 154.383 243.839, 150.719 243.646, 150.390 244.178 C 149.372 245.825, 154.862 251.755, 159.470 253.986 C 163.706 256.036, 164.998 256.143, 179.747 255.657 C 188.411 255.371, 197.188 254.832, 199.250 254.459 C 202.154 253.934, 203 254.104, 203 255.214 C 203 256.160, 201.044 257.035, 197.250 257.787 C 194.088 258.415, 188.462 259.595, 184.750 260.412 C 181.037 261.228, 174.174 262.206, 169.500 262.585 C 160.650 263.303, 159.363 264.208, 162.787 267.307 C 168.801 272.750, 178.396 273.290, 192.838 269 C 204.248 265.610, 205 265.503, 205 267.267 C 205 268.456, 190.678 274.383, 181.250 277.094 C 176.425 278.482, 176.189 278.956, 179.037 281.534 C 182.500 284.667, 191.410 284.700, 199.141 281.607 C 206.719 278.575, 207 278.533, 207 280.439 C 207 281.230, 204.299 283.545, 200.997 285.583 C 193.593 290.153, 194.183 292, 203.046 292 C 208.171 292, 209.409 291.575, 213.673 288.353 C 216.328 286.347, 220.402 282.972, 222.728 280.853 C 225.053 278.734, 227.753 277.002, 228.728 277.005 C 229.702 277.007, 233.200 278.121, 236.500 279.481 C 243.342 282.299, 247.755 282.639, 250.559 280.562 C 252.426 279.179, 252.328 278.941, 247.997 274.312 C 241.971 267.873, 241.043 265.998, 240.130 258.420 C 239.479 253.005, 238.813 251.402, 236.019 248.520 C 231.133 243.478, 225.657 241.981, 212.572 242.107 C 206.482 242.166, 199.700 242.569, 197.500 243.002 M 291.009 243.911 C 283.204 246.675, 280.490 250.122, 279.011 259.145 C 277.713 267.062, 276.751 269.056, 271.341 275.045 C 269.413 277.179, 268.124 279.392, 268.477 279.962 C 269.626 281.821, 280.739 281.174, 285 279 C 287.156 277.900, 289.516 277, 290.244 277 C 290.972 277, 295.001 279.854, 299.197 283.342 C 303.392 286.831, 308.145 290.232, 309.759 290.900 C 313.370 292.396, 323.190 291.964, 323.743 290.285 C 323.963 289.617, 321.861 287.665, 319.072 285.949 C 316.282 284.233, 314 282.192, 314 281.414 C 314 279.529, 314.974 279.622, 321.213 282.102 C 327.653 284.661, 337.874 284.329, 341.048 281.456 C 343.873 278.900, 343.538 278.373, 338.250 277.044 C 335.637 276.388, 331.925 275.163, 330 274.323 C 324.266 271.821, 322.684 271.194, 318.750 269.865 C 316.688 269.168, 315 267.961, 315 267.183 C 315 265.575, 315.262 265.619, 328.493 269.418 C 338.226 272.212, 344.758 272.650, 350.101 270.864 C 353.333 269.784, 359 265.385, 359 263.957 C 359 263.588, 355.738 263.001, 351.750 262.651 C 338.888 261.522, 317 256.844, 317 255.225 C 317 254.108, 317.848 253.928, 320.750 254.431 C 322.813 254.788, 331.167 255.337, 339.316 255.651 C 356.410 256.309, 360.790 255.281, 365.953 249.400 C 370.525 244.194, 370.060 243.589, 362.250 244.583 C 353.349 245.716, 346.886 245.602, 333 244.068 C 326.675 243.369, 315.875 242.611, 309 242.382 C 298.450 242.031, 295.643 242.270, 291.009 243.911 M 396 250.500 C 396 252.665, 396.404 253.082, 398.250 252.820 C 399.727 252.610, 400.500 251.813, 400.500 250.500 C 400.500 249.187, 399.727 248.390, 398.250 248.180 C 396.404 247.918, 396 248.335, 396 250.500 M 253.522 251.250 C 251.972 252.597, 250.695 254.994, 250.340 257.224 C 249.831 260.417, 250.193 261.455, 252.873 264.509 L 256 268.070 256 290.580 L 256 313.091 252.279 312.393 C 246.829 311.370, 238.034 307.249, 235.882 304.708 C 234.773 303.399, 234.111 301.278, 234.256 299.500 C 234.561 295.746, 237.607 295.068, 243.080 297.536 C 245.399 298.582, 247.878 298.996, 249.451 298.602 C 251.650 298.050, 251.938 297.556, 251.417 295.228 C 251.082 293.727, 249.493 291.262, 247.888 289.750 C 241.168 283.420, 227.537 288.250, 225.547 297.666 C 224.017 304.904, 230.127 314.405, 238.098 317.184 C 241.651 318.422, 241.727 319.839, 238.500 324.595 C 237.125 326.621, 236.002 329.229, 236.004 330.390 C 236.009 333.332, 239.303 338.425, 242.940 341.114 C 246.338 343.626, 246.739 345.142, 244.500 347 C 241.177 349.758, 243.561 360.624, 248.010 363.006 C 250.103 364.125, 250.701 367.448, 249 368.500 C 248.450 368.840, 248 370.918, 248 373.119 C 248 376.548, 248.714 377.875, 253 382.406 L 258 387.693 258 395.347 C 258 401.483, 258.297 403, 259.500 403 C 260.690 403, 261 401.556, 261 396 C 261 390.618, 261.328 389, 262.421 389 C 263.202 389, 264.143 390.374, 264.512 392.053 C 264.880 393.732, 265.704 394.935, 266.341 394.726 C 267.864 394.226, 268.441 387.041, 267.068 385.668 C 265.372 383.972, 265.804 382.021, 268.618 378.678 C 270.926 375.934, 271.171 374.948, 270.694 370.326 C 270.187 365.413, 270.368 364.850, 273.577 361.347 C 277.709 356.836, 278.286 350.905, 275 346.727 C 272.633 343.719, 272.439 342, 274.465 342 C 275.271 342, 277.521 340.603, 279.465 338.896 C 282.588 336.155, 283 335.234, 283 331.002 C 283 327.060, 282.469 325.643, 280 323 C 276.549 319.305, 276.243 318, 278.829 318 C 281.776 318, 289.683 312.203, 291.929 308.396 C 294.772 303.578, 294.727 296.193, 291.832 292.514 C 289.174 289.134, 284.310 286.999, 279.282 287.004 C 275.219 287.008, 269.009 290.163, 268.986 292.235 C 268.979 292.931, 268.689 294.560, 268.342 295.856 C 267.723 298.169, 267.812 298.201, 273.106 297.600 C 284.798 296.272, 284.468 296.222, 284.828 299.372 C 285.271 303.249, 280.280 308.339, 273.724 310.696 C 270.989 311.680, 268.534 313.051, 268.269 313.742 C 268.003 314.434, 266.432 315, 264.776 315 C 262.133 315, 261.844 314.726, 262.405 312.750 C 262.756 311.512, 263.330 300.887, 263.681 289.138 C 264.292 268.663, 264.416 267.659, 266.659 264.993 C 271.848 258.827, 267.736 249, 259.967 249 C 257.403 249, 255.244 249.754, 253.522 251.250 M 102.688 256.646 C 102.309 257.024, 102 259.918, 102 263.078 C 102 268.265, 102.299 269.073, 105.077 271.411 C 107.545 273.488, 109.208 274, 113.488 274 C 118.217 274, 119.116 273.651, 121.411 270.923 C 124.646 267.079, 125.251 258.616, 122.250 259.185 C 121.199 259.385, 120.374 260.603, 120.186 262.237 C 119.844 265.193, 115.785 269, 112.976 269 C 109.691 269, 106.705 265.529, 106.088 260.991 C 105.528 256.870, 104.183 255.151, 102.688 256.646 M 507.960 261.541 C 502.689 266.878, 502.549 267.167, 502.525 272.760 C 502.502 277.960, 502.712 278.530, 504.750 278.820 C 507.514 279.212, 507.553 280.045, 505.004 284.226 C 502.251 288.741, 502.248 295.991, 505 296.710 C 507.572 297.383, 507.531 298.806, 504.856 301.653 C 503.465 303.134, 502.543 305.701, 502.229 308.967 C 501.785 313.585, 501.921 314, 503.873 314 C 506.745 314, 506.549 315.817, 503.313 319.195 C 501.197 321.404, 500.612 323.009, 500.563 326.750 C 500.498 331.688, 500.417 331.628, 505.250 330.261 C 507.641 329.585, 507.569 332.685, 505.176 333.444 C 501.646 334.564, 497.859 339.635, 497.269 344.028 L 496.699 348.279 500.350 347.594 C 505.007 346.720, 505.456 349.154, 500.980 351.008 C 494.757 353.586, 489.855 362.959, 493.382 365.537 C 495.578 367.143, 495.550 367.215, 491 371.765 C 488.044 374.721, 487 376.578, 487 378.882 C 487 380.597, 487.363 382, 487.806 382 C 488.249 382, 491.392 381.061, 494.790 379.914 C 502.253 377.393, 506 373.513, 506 368.307 C 506 364.526, 505.857 364.488, 499.250 366.536 C 495.473 367.707, 496.519 364.314, 500.322 363.059 C 505.219 361.443, 510.148 355.933, 510.341 351.859 C 510.473 349.078, 510.113 348.445, 508.250 348.180 C 505.163 347.742, 505.386 346.971, 510 342.121 C 513.285 338.668, 514 337.208, 514 333.958 C 514 330.403, 513.746 330, 511.500 330 C 508.123 330, 508.350 328.850, 512.557 324.643 C 515.782 321.418, 516.085 320.641, 515.807 316.293 C 515.530 311.969, 515.280 311.531, 513.250 311.813 C 510.076 312.254, 510.428 310.185, 514.187 306.308 C 516.831 303.579, 517.384 302.210, 517.437 298.260 C 517.498 293.651, 517.413 293.509, 514.750 293.788 C 511.977 294.078, 510.807 291.855, 513.014 290.491 C 515.478 288.968, 518.168 281.707, 517.529 278.303 C 516.930 275.109, 516.677 274.912, 513.942 275.513 C 510.344 276.303, 510.039 274.652, 513.167 271.322 C 515.902 268.411, 516.981 259.059, 514.791 257.242 C 513.641 256.287, 512.340 257.105, 507.960 261.541 M 395.161 267.062 C 395.384 268.610, 396.358 269.618, 398 270 C 401.519 270.819, 401.793 274.361, 398.568 277.350 C 396.012 279.718, 395.241 282.413, 396.837 283.399 C 397.648 283.901, 408.410 279.977, 414.500 276.960 C 416.947 275.747, 417.500 274.851, 417.500 272.097 C 417.500 268.888, 417.253 268.656, 412.500 267.406 C 409.750 266.683, 404.648 265.779, 401.161 265.398 C 394.912 264.715, 394.827 264.739, 395.161 267.062 M 50.358 273.370 C 46.112 279.482, 44.454 280.052, 38.346 277.500 C 34.964 276.087, 31 275.500, 31 276.413 C 31 276.640, 32.575 279.217, 34.500 282.140 C 36.425 285.063, 38 288.034, 38 288.743 C 38 289.451, 36.357 292.506, 34.348 295.530 C 32.340 298.555, 30.995 301.329, 31.361 301.694 C 31.726 302.059, 34.421 301.602, 37.350 300.679 C 43.174 298.843, 47 298.518, 47 299.859 C 47 301.048, 53.521 309.185, 54.613 309.359 C 55.101 309.436, 55.725 306.125, 56 302 L 56.500 294.500 62.943 292.421 C 66.486 291.278, 69.541 289.877, 69.731 289.308 C 70.065 288.306, 68.985 287.781, 60.500 284.820 L 56.500 283.424 56.199 276.462 C 56.034 272.633, 55.520 269.121, 55.057 268.658 C 54.594 268.195, 52.480 270.315, 50.358 273.370 M 462.597 269 C 462.295 269.825, 461.924 273.425, 461.774 277 L 461.500 283.500 454.750 285.868 C 451.038 287.171, 448 288.580, 448 289 C 448 289.420, 451.038 290.829, 454.750 292.132 L 461.500 294.500 461.792 302.250 C 461.953 306.512, 462.489 310, 462.983 310 C 463.478 310, 465.816 307.525, 468.178 304.500 C 470.541 301.475, 473.211 299, 474.111 299 C 475.012 299, 477.662 299.675, 480 300.500 C 488.121 303.365, 488.688 302.428, 483.500 294.724 C 481.575 291.865, 480 289.124, 480 288.633 C 480 288.141, 481.575 285.547, 483.500 282.867 C 488.946 275.286, 488.629 275.031, 477.605 278.120 L 472.710 279.492 470.105 276.129 C 463.907 268.127, 463.172 267.430, 462.597 269 M 396.667 290.667 C 395.152 292.182, 396.186 294.169, 399 295.150 C 402.821 296.482, 402.824 298.624, 399.006 300.797 C 396.824 302.038, 396.011 303.245, 396.006 305.250 C 395.998 308.707, 396.527 308.686, 402.339 305 C 404.941 303.350, 407.442 302, 407.897 302 C 408.352 302, 410.415 303.343, 412.482 304.985 C 414.548 306.627, 416.635 307.726, 417.119 307.426 C 418.536 306.550, 418.132 302.355, 416.500 301 C 415.675 300.315, 415 299.183, 415 298.485 C 415 297.786, 415.675 296.955, 416.500 296.638 C 417.325 296.322, 418 294.985, 418 293.667 C 418 291.576, 417.412 291.191, 413.360 290.636 C 407.284 289.803, 397.512 289.821, 396.667 290.667 M 117.810 294.750 C 117.563 297.737, 117.051 298.564, 115.295 298.814 C 113.532 299.064, 112.918 298.464, 112.232 295.814 C 111.112 291.495, 108.601 291.455, 108.187 295.750 C 107.775 300.018, 104.297 300.423, 103.816 296.259 C 103.626 294.605, 102.805 293.385, 101.750 293.185 C 100.227 292.896, 100 293.707, 100 299.427 L 100 306 107.250 305.989 C 111.237 305.983, 116.188 305.699, 118.250 305.358 L 122 304.738 122 297.869 C 122 291.738, 121.792 291, 120.060 291 C 118.541 291, 118.054 291.812, 117.810 294.750 M 394.667 312.667 C 393.329 314.004, 394.050 317.014, 396 318.232 C 399.287 320.285, 398.553 323.871, 394.500 325.564 C 392.111 326.563, 391 327.679, 391 329.080 C 391 331.067, 391.348 331.111, 401.750 330.439 C 407.663 330.057, 413.063 329.297, 413.750 328.750 C 415.923 327.020, 415.174 323.257, 412.250 321.220 C 409.150 319.060, 396.569 312, 395.821 312 C 395.553 312, 395.033 312.300, 394.667 312.667 M 102.164 318.124 C 102.389 319.717, 103.262 320.608, 104.811 320.828 C 108.111 321.295, 108.618 323.713, 106 326.500 C 103.935 328.698, 103.766 332.004, 105.719 331.998 C 106.148 331.996, 109.148 330.196, 112.385 327.998 C 115.622 325.799, 119.244 324, 120.435 324 C 123.022 324, 125 322.234, 125 319.925 C 125 318.543, 123.562 318.147, 116.750 317.655 C 112.213 317.327, 106.999 316.764, 105.164 316.403 C 102.078 315.797, 101.853 315.926, 102.164 318.124 M 252 324.525 C 252 325.363, 250.875 326.477, 249.500 327 C 244.273 328.987, 248.484 336, 254.904 336 C 256.701 336, 257.002 335.394, 257.014 331.750 C 257.021 329.413, 257.299 326.488, 257.630 325.250 C 258.161 323.269, 257.861 323, 255.117 323 C 252.990 323, 252 323.485, 252 324.525 M 262.122 332.200 C 261.275 337.007, 261.307 338.576, 262.265 339.185 C 264.162 340.390, 266 340.146, 266 338.688 C 266 337.966, 267.350 336.378, 269 335.158 C 273.985 331.472, 272.138 326.107, 265.857 326.032 C 263.395 326.002, 263.139 326.426, 262.122 332.200 M 116.108 339.019 C 112.042 340.595, 108.240 342.360, 107.658 342.942 C 107.076 343.524, 105.790 344, 104.800 344 C 102.836 344, 102.340 346.474, 104.087 347.554 C 104.685 347.923, 105.675 347.725, 106.287 347.113 C 106.899 346.501, 108.614 346, 110.098 346 C 111.582 346, 116.687 344.583, 121.443 342.850 C 127.868 340.510, 130.011 339.290, 129.786 338.100 C 129.302 335.541, 124.193 335.884, 116.108 339.019 M 388.667 337.667 C 386.895 339.439, 388.210 341.914, 391.500 343 C 397.441 344.961, 395.582 348, 388.441 348 C 385.905 348, 384.623 348.645, 383.374 350.551 C 382.403 352.034, 382.079 353.451, 382.601 353.935 C 383.096 354.393, 387.550 356.377, 392.500 358.344 C 400.248 361.424, 401.697 361.725, 402.914 360.511 C 404.684 358.745, 403.108 356.495, 399.459 355.579 C 395.219 354.515, 396.568 352.315, 401.895 351.608 C 404.587 351.251, 407.324 350.315, 407.977 349.528 C 410.436 346.565, 408.603 344.566, 399.987 340.813 C 391.110 336.945, 389.763 336.570, 388.667 337.667 M 127.758 350.982 L 124.500 355.964 118.643 355.982 C 113.717 355.997, 112.883 356.251, 113.393 357.582 C 113.727 358.452, 114 359.334, 114 359.543 C 114 359.752, 115.800 360.408, 118 361 C 122.067 362.095, 123.381 364.533, 120.500 365.638 C 118.562 366.382, 118.564 368.895, 120.504 369.640 C 121.331 369.957, 124.143 369.208, 126.754 367.976 C 129.364 366.743, 133.446 364.896, 135.824 363.871 C 138.943 362.527, 140.047 361.519, 139.787 360.254 C 139.498 358.851, 138.556 358.557, 135.088 358.782 C 130.346 359.091, 130.362 359.141, 133.078 352.397 C 134.365 349.202, 133.845 346, 132.039 346 C 131.476 346, 129.549 348.242, 127.758 350.982 M 60.975 351.565 C 60.439 352.976, 60 354.798, 60 355.615 C 60 357.966, 57.230 362.698, 55.455 363.379 C 54.565 363.720, 51.398 364, 48.418 364 C 45.438 364, 43 364.423, 43 364.940 C 43 365.457, 45.504 367.595, 48.565 369.690 C 54.723 373.906, 54.402 372.598, 52.380 385.250 C 52.051 387.313, 52.069 389, 52.420 389 C 52.771 389, 55.336 387.200, 58.119 385 C 60.902 382.800, 63.873 381, 64.720 381 C 65.568 381, 68.453 382.575, 71.133 384.500 C 75.403 387.568, 78 388.762, 78 387.657 C 78 387.468, 77.100 384.697, 76 381.500 C 74.900 378.303, 74 374.802, 74 373.720 C 74 372.637, 76.025 369.970, 78.500 367.791 C 80.975 365.613, 83 363.418, 83 362.915 C 83 362.412, 79.905 362, 76.122 362 C 68.359 362, 68.112 361.821, 65.451 354.250 C 63.389 348.386, 62.408 347.797, 60.975 351.565 M 453.036 353.585 C 449.683 361.689, 450.005 361.455, 441.474 362 L 433.655 362.500 439.328 367.676 C 442.447 370.523, 445 373.349, 445 373.956 C 445 374.564, 443.875 377.733, 442.500 381 C 441.125 384.267, 440 387.178, 440 387.470 C 440 388.732, 442.462 387.766, 447.567 384.500 C 450.577 382.575, 453.490 381, 454.042 381 C 454.593 381, 456.997 382.800, 459.384 385 C 461.771 387.200, 464.236 389, 464.862 389 C 466.347 389, 466.308 385.179, 464.763 379.405 C 463.394 374.286, 463.566 374.029, 471.923 368.688 C 477.276 365.266, 476.992 364.015, 470.833 363.900 C 461.712 363.730, 460.783 363.159, 458.750 356.483 C 456.234 348.218, 455.427 347.808, 453.036 353.585 M 253.384 351.442 C 252.477 353.805, 253.403 356.454, 255.261 356.812 C 256.651 357.079, 257 356.429, 257 353.573 C 257 351.031, 256.558 350, 255.469 350 C 254.626 350, 253.688 350.649, 253.384 351.442 M 262 356 C 262 363.173, 263.584 363.889, 266.409 357.993 C 268.253 354.142, 268.257 353.941, 266.504 352.004 C 263.216 348.371, 262 349.449, 262 356 M 376.803 362.750 C 373.867 366.158, 371.709 370.798, 372.319 372.389 C 373.233 374.770, 374.605 374.363, 377 371 C 378.175 369.350, 379.548 368, 380.050 368 C 380.553 368, 383.982 369.847, 387.670 372.104 C 393.924 375.932, 394.462 376.089, 395.670 374.436 C 396.540 373.247, 396.641 372.273, 395.979 371.475 C 394.768 370.016, 380.264 361, 379.128 361 C 378.678 361, 377.632 361.788, 376.803 362.750 M 139.240 370.962 C 137.607 373.324, 135.681 374.939, 134.473 374.962 C 128.338 375.077, 126.227 381.100, 130.250 387.008 C 134.170 392.765, 134.821 392.766, 143.371 387.022 C 147.643 384.153, 151.391 381.144, 151.702 380.335 C 152.722 377.676, 150.495 376.692, 146.624 378.091 C 141.835 379.823, 141.071 378.667, 143.834 373.867 C 145.657 370.700, 145.888 369.570, 144.945 368.434 C 143.132 366.250, 142.220 366.654, 139.240 370.962 M 365.380 379.452 C 364.606 381.469, 365.044 381.991, 372.938 388.449 C 379.851 394.105, 383.156 395.144, 383.788 391.860 C 384.135 390.062, 369.880 378, 367.409 378 C 366.600 378, 365.686 378.653, 365.380 379.452 M 133.364 381.493 C 133.018 382.396, 133.214 383.614, 133.800 384.200 C 135.324 385.724, 138.210 384.331, 137.812 382.265 C 137.369 379.963, 134.165 379.407, 133.364 381.493 M 491.581 383.995 C 485.143 386.534, 480 391.508, 480 395.196 C 480 397.022, 480.523 398, 481.500 398 C 483.995 398, 483.180 400.917, 480.497 401.590 C 477.235 402.409, 473 407.492, 473 410.589 C 473 412.881, 473.249 412.988, 477.250 412.422 C 484.761 411.359, 487.909 409.933, 490.988 406.199 C 494.278 402.207, 494.581 400.904, 492.862 398.151 C 491.897 396.606, 492.358 395.736, 495.900 392.415 C 498.776 389.718, 500.141 387.567, 500.288 385.501 C 500.558 381.689, 498.383 381.313, 491.581 383.995 M 148.840 394.761 C 144.471 398.985, 143.058 400.986, 143.547 402.261 C 144.612 405.038, 146.470 404.337, 152.395 398.922 C 158.217 393.601, 161.265 392.877, 161.810 396.684 C 162.019 398.148, 160.466 400.673, 157.001 404.499 C 154.186 407.607, 152.059 410.679, 152.275 411.325 C 153.163 413.994, 156.009 412.774, 161.347 407.435 C 168.210 400.573, 168.886 396.732, 164.077 391.923 C 159.378 387.225, 155.984 387.857, 148.840 394.761 M 351.478 395.127 C 349.015 397.397, 347.017 399.760, 347.038 400.377 C 347.058 400.995, 348.619 403.300, 350.507 405.500 L 353.939 409.500 357.200 406.250 L 360.461 403 357.231 401.781 C 353.815 400.492, 353.229 399.171, 355.200 397.200 C 357.299 395.101, 360.725 395.884, 363.411 399.077 C 366.717 403.005, 366.665 404.173, 363 408.347 C 359.244 412.625, 359.215 414, 362.883 414 C 364.987 414, 365.918 414.578, 366.325 416.135 C 366.860 418.181, 367.019 418.134, 370.138 415.016 C 372.957 412.197, 373.187 411.609, 371.851 410.630 C 370.722 409.803, 370.332 407.792, 370.396 403.134 C 370.480 397.052, 370.329 396.638, 367.030 393.884 C 361.784 389.504, 357.179 389.872, 351.478 395.127 M 337.688 405.646 C 336.203 407.131, 337.316 409.799, 342.423 417 C 345.816 421.784, 348.423 424.500, 349.621 424.500 C 353.202 424.500, 352.051 420.616, 346.231 413.065 C 340.527 405.664, 338.997 404.336, 337.688 405.646 M 177.388 408.231 C 176.290 409.479, 174.121 412.232, 172.569 414.350 C 170.123 417.685, 169.357 418.121, 166.835 417.617 C 163.136 416.877, 161.990 419.226, 164.628 422.141 C 167.918 425.776, 174.985 429.415, 176.266 428.134 C 177.111 427.289, 177.094 426.694, 176.200 425.800 C 174.163 423.763, 174.852 420.733, 178.584 415.314 C 182.022 410.322, 182.695 407.063, 180.442 406.314 C 179.861 406.120, 178.486 406.983, 177.388 408.231 M 472.813 416.581 C 467.859 418.106, 464 421.908, 464 425.266 C 464 427.131, 464.506 427.231, 471.679 426.770 C 478.963 426.303, 479.529 426.091, 482.679 422.653 C 484.505 420.660, 486 418.123, 486 417.015 C 486 415.300, 485.367 415.010, 481.750 415.070 C 479.413 415.108, 475.391 415.788, 472.813 416.581 M 98.350 425.750 C 98.699 428.913, 99.249 432.447, 99.571 433.604 C 100.060 435.360, 99.275 436.163, 94.828 438.454 C 86.592 442.698, 85.987 443.625, 90.619 444.911 C 92.754 445.504, 95.682 445.991, 97.128 445.994 C 100.546 446.002, 101.588 447.458, 102.348 453.290 C 102.692 455.925, 103.483 459.035, 104.107 460.201 C 105.169 462.184, 105.452 461.950, 108.489 456.593 C 113.034 448.574, 112.819 448.698, 119.887 449.979 C 123.270 450.593, 126.502 450.808, 127.071 450.456 C 127.664 450.089, 126.169 447.750, 123.552 444.952 C 121.048 442.275, 119 439.376, 119 438.510 C 119 437.643, 120.151 434.662, 121.558 431.886 C 125.349 424.405, 124.631 423.495, 117.735 427.038 C 114.564 428.667, 111.307 430, 110.498 430 C 109.689 430, 106.765 427.750, 104 425 C 101.235 422.250, 98.690 420, 98.344 420 C 97.998 420, 98.001 422.587, 98.350 425.750 M 413.125 425.672 L 407.785 430.343 401.541 427.172 C 398.107 425.427, 395.005 424, 394.649 424 C 393.430 424, 393.999 426.207, 396.500 431.187 C 397.875 433.924, 399 436.868, 399 437.728 C 399 438.589, 396.929 441.506, 394.399 444.212 C 391.868 446.917, 390.108 449.439, 390.487 449.815 C 390.865 450.192, 394.624 450.500, 398.838 450.500 L 406.500 450.500 409.285 456 C 410.817 459.025, 412.596 461.500, 413.240 461.500 C 414.645 461.500, 415.764 457.851, 415.900 452.821 C 416.019 448.449, 418.141 446.002, 421.821 445.994 C 425.825 445.986, 432.366 443.957, 431.370 443.032 C 430.891 442.588, 427.652 440.759, 424.171 438.969 C 418.777 436.196, 417.932 435.403, 418.457 433.607 C 419.653 429.518, 420.271 421, 419.373 421 C 418.874 421, 416.062 423.102, 413.125 425.672 M 463.327 431.225 C 459.031 432.606, 453.537 438.350, 454.388 440.569 C 454.937 442, 456.038 442.190, 461.316 441.767 C 468.551 441.186, 472.976 439.211, 475.427 435.470 C 478.034 431.493, 476.867 429.983, 471.281 430.102 C 468.652 430.158, 465.072 430.663, 463.327 431.225 M 255.200 441.200 C 252.985 443.415, 253.750 448.790, 256.541 450.619 C 261.710 454.006, 268.006 447.710, 264.619 442.541 C 262.790 439.750, 257.415 438.985, 255.200 441.200 M 451.500 445.713 C 448.722 446.382, 444 451.020, 444 453.080 C 444 454.018, 444.712 455.059, 445.582 455.393 C 448.099 456.359, 455.612 456.097, 458.685 454.936 C 462.443 453.517, 467 449.064, 467 446.813 C 467 445.230, 466.144 445.015, 460.250 445.116 C 456.538 445.180, 452.600 445.449, 451.500 445.713 M 435.535 462.104 C 433.591 463.811, 432 465.779, 432 466.479 C 432 468.038, 436.464 469, 443.702 469 C 448.394 469, 449.561 468.593, 452.077 466.077 C 453.685 464.469, 455 462.219, 455 461.077 C 455 459.148, 454.432 459, 447.035 459 C 439.551 459, 438.856 459.188, 435.535 462.104 M 85.625 471.125 C 85.281 472.844, 85 476.675, 85 479.640 C 85 484.358, 85.417 485.484, 88.346 488.681 C 90.728 491.280, 92.198 492.138, 93.448 491.658 C 94.972 491.073, 95.158 489.868, 94.852 482.557 C 94.529 474.829, 94.256 473.876, 91.563 471.065 C 87.843 467.183, 86.411 467.197, 85.625 471.125 M 331.801 476 L 331.500 484.500 325.750 487.287 C 322.587 488.820, 320 490.449, 320 490.907 C 320 491.365, 322.137 492.286, 324.750 492.954 C 333.692 495.238, 333.727 495.271, 334.654 502.104 C 335.119 505.533, 336.022 508.511, 336.661 508.723 C 337.299 508.934, 339.481 506.608, 341.508 503.554 C 343.536 500.499, 345.686 498, 346.287 498 C 346.888 498, 349.982 498.537, 353.162 499.194 C 356.342 499.851, 359.231 500.102, 359.581 499.752 C 359.931 499.403, 358.368 496.924, 356.109 494.244 C 353.849 491.564, 352 488.570, 352 487.590 C 352 486.611, 353.367 483.319, 355.037 480.275 C 356.708 477.232, 357.838 474.505, 357.549 474.216 C 357.260 473.927, 354.206 474.886, 350.762 476.348 C 347.318 477.810, 344.124 479.004, 343.664 479.003 C 343.205 479.001, 340.415 476.413, 337.465 473.250 L 332.102 467.500 331.801 476 M 180.108 473.500 C 175.263 478.669, 173.174 479.032, 166.451 475.872 C 163.960 474.701, 161.614 474.053, 161.236 474.431 C 160.857 474.809, 161.775 477.462, 163.274 480.325 C 164.773 483.189, 166 486.396, 166 487.451 C 166 488.507, 164.200 491.506, 162 494.115 C 159.800 496.724, 158 499.116, 158 499.429 C 158 500.392, 162.729 500.065, 167.586 498.766 C 172.031 497.577, 172.279 497.627, 174.350 500.129 C 175.533 501.558, 177.267 504.138, 178.203 505.863 C 180.999 511.011, 182.742 509.920, 183.534 502.528 C 183.915 498.969, 184.738 495.668, 185.363 495.193 C 185.989 494.719, 189.112 493.768, 192.305 493.081 C 195.827 492.323, 197.970 491.373, 197.754 490.666 C 197.558 490.025, 194.833 488.267, 191.698 486.760 L 186 484.020 186 476.510 C 186 472.379, 185.623 469, 185.163 469 C 184.702 469, 182.427 471.025, 180.108 473.500 M 422.327 475.339 C 418.417 478.923, 418.502 481, 422.559 481 C 424.062 481, 425 481.576, 425 482.500 C 425 483.674, 423.637 484, 418.732 484 C 413.670 484, 411.746 484.488, 408.732 486.536 C 403.829 489.868, 403.914 491.803, 409 492.616 C 411.479 493.012, 413 493.793, 413 494.670 C 413 495.817, 411.632 495.963, 405.750 495.445 C 399.201 494.869, 398.169 495.034, 395.077 497.154 C 390.874 500.035, 390.116 501.956, 392.895 502.683 C 394.053 502.986, 395 503.813, 395 504.522 C 395 505.478, 393.517 505.690, 389.250 505.343 C 381.903 504.745, 376.659 507.116, 376.184 511.250 C 375.883 513.864, 375.605 514, 370.568 514 C 364.251 514, 359.849 516.706, 360.724 520.051 C 361.224 521.964, 360.929 522.066, 356.380 521.559 C 353.537 521.242, 350.039 521.543, 348 522.280 C 345.090 523.332, 344.545 523.983, 344.767 526.140 L 345.034 528.735 338.030 528.234 C 330.025 527.661, 327.652 528.766, 328.618 532.614 C 329.317 535.399, 327.823 535.686, 324 533.500 C 318.985 530.633, 310 532.416, 310 536.277 C 310 537.855, 309.565 538.092, 307.750 537.503 C 300.293 535.083, 293 535.833, 293 539.019 C 293 541.383, 291.253 541.534, 287.364 539.506 C 282.377 536.905, 275 538.116, 275 541.535 C 275 543.392, 273.064 543.363, 270.559 541.468 C 269.369 540.569, 266.368 540, 262.809 540 C 257.667 540, 257 540.230, 257 542 C 257 544.610, 255.202 544.538, 252.300 541.812 C 250.610 540.224, 248.671 539.607, 245.235 539.562 C 241.064 539.507, 240.462 539.768, 240.180 541.750 C 239.780 544.566, 237.887 544.650, 236.186 541.926 C 233.516 537.652, 223.956 535.495, 222.103 538.750 C 221.269 540.215, 220.813 540.294, 219.303 539.236 C 213.273 535.008, 211.159 534.007, 208.250 534.004 C 204.353 533.999, 204.279 534.643, 207.451 540.903 C 211.205 548.312, 217.544 552.852, 222.671 551.803 C 223.997 551.532, 224.421 550.682, 224.212 548.714 C 223.822 545.040, 224.929 545.290, 229.879 550 C 233.366 553.317, 234.776 554, 238.136 554 C 241.346 554, 242.296 553.585, 242.710 552 C 243.364 549.498, 244.522 549.479, 247.622 551.917 C 252.481 555.739, 262 555.440, 262 551.465 C 262 549.483, 263.243 549.621, 267.378 552.061 C 272.255 554.938, 279.362 554.475, 279.820 551.250 C 280.196 548.597, 281.221 548.443, 284.444 550.555 C 286.039 551.600, 288.572 552.011, 292.159 551.805 C 296.633 551.550, 297.662 551.124, 298.500 549.187 C 299.299 547.339, 300.003 547.005, 302 547.525 C 311.608 550.030, 317.485 548.780, 316.401 544.460 C 315.672 541.558, 316.097 541.490, 321.658 543.613 C 326.937 545.629, 333.017 544.534, 334.451 541.308 C 335.297 539.404, 336.135 539.187, 342.095 539.335 C 347.429 539.466, 349.216 539.113, 350.894 537.595 C 353.521 535.218, 353.545 534.308, 351 533.500 C 349.900 533.151, 349 532.168, 349 531.316 C 349 530.150, 349.557 529.955, 351.250 530.529 C 352.488 530.948, 356.203 531.484, 359.506 531.720 C 364.934 532.108, 365.741 531.904, 367.905 529.601 C 370.002 527.369, 370.095 526.974, 368.650 526.419 C 367.742 526.071, 367 525.219, 367 524.527 C 367 523.589, 368.749 523.392, 373.847 523.757 C 379.260 524.144, 381.249 523.883, 383.347 522.508 C 386.492 520.448, 386.795 518.021, 384 517.290 C 382.900 517.002, 382 516.092, 382 515.267 C 382 514.184, 382.625 513.949, 384.250 514.422 C 392.011 516.684, 396.125 515.834, 400.426 511.081 C 402.341 508.966, 402.336 508.953, 399.174 507.760 C 393.694 505.691, 395.272 504.172, 402.314 504.737 C 406.986 505.112, 409.448 504.820, 411.784 503.612 C 415.331 501.777, 417.601 498.490, 416.003 497.502 C 415.451 497.161, 415 496.234, 415 495.441 C 415 494.404, 416.239 494, 419.423 494 C 422.723 494, 424.628 493.342, 426.923 491.411 C 429.852 488.947, 431.130 485, 429 485 C 428.450 485, 428 484.325, 428 483.500 C 428 482.414, 429.115 482, 432.039 482 C 435.341 482, 436.828 481.300, 440.196 478.159 C 442.620 475.897, 444.019 473.840, 443.598 473.159 C 443.147 472.428, 439.756 472, 434.426 472 C 426.234 472, 425.857 472.104, 422.327 475.339 M 98.360 480.505 C 98.042 481.333, 97.955 485.430, 98.166 489.609 C 98.524 496.700, 98.766 497.402, 101.790 500.104 C 107.084 504.834, 108 504.147, 108 495.450 C 108 487.313, 106.561 483.207, 102.783 480.561 C 99.999 478.610, 99.091 478.599, 98.360 480.505 M 256.469 490.199 C 253.843 498.266, 252.859 499, 244.671 499 L 237.651 499 240.076 501.595 C 241.409 503.022, 243.731 504.830, 245.236 505.613 C 248.903 507.521, 249.637 511.138, 247.641 517.469 C 246.739 520.333, 246 522.974, 246 523.338 C 246 524.820, 248.490 523.811, 253 520.500 C 255.622 518.575, 258.277 517, 258.899 517 C 259.522 517, 262.506 518.643, 265.530 520.652 C 268.555 522.660, 271.329 524.005, 271.694 523.639 C 272.059 523.274, 271.602 520.579, 270.679 517.650 C 269.755 514.721, 269 511.631, 269 510.785 C 269 509.938, 271.457 507.222, 274.460 504.750 C 277.464 502.277, 279.639 499.972, 279.294 499.627 C 278.949 499.282, 275.872 499, 272.456 499 C 265.319 499, 264.745 498.550, 262.156 490.934 C 261.162 488.009, 259.864 485.455, 259.272 485.257 C 258.679 485.060, 257.418 487.284, 256.469 490.199 M 112 498.277 C 112 507.425, 113.073 509.952, 118.052 512.527 C 119.726 513.392, 122.028 513.780, 123.419 513.431 C 125.393 512.935, 126.134 513.358, 127.325 515.662 C 129.242 519.368, 131.844 521.575, 135.250 522.385 C 137.902 523.015, 138 522.895, 138 519.019 C 138 513.400, 140.582 513.567, 141.542 519.247 C 142.434 524.528, 148.403 531, 152.382 531 C 154.333 531, 155 530.491, 155 529 C 155 527.889, 155.667 527, 156.500 527 C 157.325 527, 158 527.848, 158 528.884 C 158 531.611, 165.450 538, 168.631 538 C 171.133 538, 171.226 537.813, 170.616 534 C 169.789 528.826, 172.317 528.400, 173.978 533.434 C 175.562 538.232, 182.169 544, 186.082 544 C 188.981 544, 189.121 543.826, 188.500 541 C 187.985 538.655, 188.186 538, 189.421 538 C 190.289 538, 191 538.449, 191 538.997 C 191 539.546, 192.627 541.796, 194.616 543.997 C 197.789 547.509, 198.771 548, 202.616 548 C 205.027 548, 207 547.762, 207 547.471 C 207 547.181, 205.658 544.285, 204.018 541.036 C 200.524 534.113, 195.700 530, 191.076 530 C 188.002 530, 187.874 530.149, 188.500 533 C 189.506 537.582, 186.638 536.851, 184.750 532.045 C 182.981 527.543, 177.851 523.813, 174 524.229 C 172.041 524.441, 171.568 524.987, 171.813 526.750 C 172.342 530.552, 169.434 529.332, 167.750 525.045 C 166.154 520.984, 160.845 516.738, 158 517.248 C 157.175 517.396, 156.358 518.751, 156.184 520.259 C 155.748 524.028, 153.392 523.711, 152.605 519.777 C 151.717 515.337, 146.367 510, 142.804 510 C 140.978 510, 140 510.523, 140 511.500 C 140 514.507, 137.211 512.938, 136.580 509.576 C 135.852 505.692, 129.798 499.689, 127.153 500.227 C 125.818 500.499, 125.562 501.567, 125.822 505.782 C 126.071 509.831, 125.817 511, 124.687 511 C 123.664 511, 123.017 509.289, 122.512 505.251 C 122.117 502.089, 121.174 498.304, 120.417 496.839 C 119.021 494.141, 114.449 490, 112.865 490 C 112.389 490, 112 493.725, 112 498.277" stroke="none" fill="#da291c" fill-rule="evenodd"/><path d="M 275.260 34.700 C 273.667 35.291, 278.624 42, 280.654 42 C 281.720 42, 281.821 41.567, 281.064 40.250 C 279.019 36.695, 276.465 34.254, 275.260 34.700 M 258.711 35.623 C 258.349 35.985, 258.828 37.680, 259.776 39.390 C 260.724 41.101, 261.547 42.622, 261.605 42.771 C 261.662 42.921, 262.686 42.682, 263.879 42.241 C 265.994 41.458, 265.965 41.358, 262.708 38.202 C 260.871 36.421, 259.072 35.261, 258.711 35.623 M 204 40.312 C 204 42.255, 209.996 46.404, 211.144 45.256 C 211.742 44.658, 210.806 43.327, 208.613 41.654 C 204.674 38.649, 204 38.453, 204 40.312 M 328.432 44.317 C 327.591 46.509, 331.305 54.070, 332.772 53.151 C 333.769 52.527, 333.596 51.340, 331.975 47.677 C 329.782 42.719, 329.242 42.206, 328.432 44.317 M 187.549 44.920 C 186.987 45.831, 191.522 50, 193.076 50 C 195.227 50, 194.717 47.935, 192.107 46.076 C 188.823 43.738, 188.354 43.619, 187.549 44.920 M 152.496 57.007 C 152.153 57.561, 152.689 58.309, 153.687 58.670 C 154.684 59.030, 156.667 60.133, 158.093 61.119 C 160.026 62.456, 160.976 62.624, 161.820 61.780 C 162.665 60.935, 162.004 60.062, 159.227 58.354 C 155.115 55.826, 153.434 55.489, 152.496 57.007 M 379.279 66.821 C 377.616 67.858, 378.797 75, 380.631 75 C 382.062 75, 382.283 72.145, 381.150 68.280 C 380.734 66.857, 380.061 66.333, 379.279 66.821 M 123 74.987 C 123 75.529, 124.655 76.664, 126.677 77.509 C 129.612 78.736, 130.513 78.789, 131.143 77.773 C 131.685 76.899, 130.923 76.132, 128.716 75.326 C 124.636 73.837, 123 73.740, 123 74.987 M 470.612 153.319 C 469.057 159.117, 471.011 161.276, 472.902 155.851 C 474.251 151.981, 474.276 152.320, 472.599 151.676 C 471.736 151.345, 470.972 151.977, 470.612 153.319 M 42.250 162.723 C 38.845 163.146, 37.940 164.656, 40.502 165.639 C 42.707 166.485, 46.691 165.247, 47.358 163.509 C 47.691 162.643, 47.418 162.068, 46.719 162.160 C 46.048 162.248, 44.038 162.502, 42.250 162.723 M 31.250 178.706 C 28.916 179.155, 28.046 182.010, 30.250 181.986 C 33.410 181.952, 35.829 180.719, 35.324 179.401 C 35.028 178.631, 34.497 178.061, 34.143 178.136 C 33.789 178.211, 32.487 178.467, 31.250 178.706 M 146.500 196 C 148.648 198.200, 150.540 200, 150.703 200 C 150.866 200, 151 198.887, 151 197.526 C 151 195.797, 150.111 194.592, 148.050 193.526 C 143.007 190.918, 142.432 191.834, 146.500 196 M 931.503 199.995 C 930.840 201.068, 930.999 273, 931.665 273 C 931.886 273, 934.221 271.908, 936.855 270.574 C 943.746 267.082, 952.724 265, 960.894 265 L 968 265 968 232 L 968 199 950.059 199 C 939.240 199, 931.874 199.395, 931.503 199.995 M 494.910 204.250 C 494.272 205.488, 492.828 207.512, 491.701 208.750 L 489.651 211 491.744 211 C 493.766 211, 498 205.675, 498 203.132 C 498 201.207, 496.131 201.883, 494.910 204.250 M 131 208.797 C 131 209.887, 138.363 217, 139.492 217 C 139.991 217, 139.860 216.460, 139.200 215.800 C 138.540 215.140, 138 213.802, 138 212.826 C 138 211.850, 136.672 210.365, 135.050 209.526 C 131.699 207.793, 131 207.667, 131 208.797 M 21.750 210.162 C 20.238 210.715, 19 211.852, 19 212.690 C 19 213.673, 19.565 213.997, 20.593 213.603 C 21.469 213.267, 23.239 212.727, 24.526 212.404 C 26.008 212.032, 26.669 211.300, 26.326 210.408 C 25.710 208.802, 25.505 208.791, 21.750 210.162 M 14.250 228.220 C 13.012 228.817, 12 229.912, 12 230.653 C 12 232.362, 12.437 232.343, 16.050 230.474 C 21.033 227.897, 19.333 225.769, 14.250 228.220 M 716.327 231.696 C 713.148 232.315, 709.138 236.749, 708.453 240.401 C 708.125 242.148, 708.001 250.866, 708.178 259.773 L 708.500 275.967 711.768 279.233 L 715.037 282.500 728.093 282.852 C 744.989 283.308, 749.548 282.606, 753.163 278.991 L 756 276.154 756 257.299 C 756 241.487, 755.737 238.069, 754.369 236.117 C 751.442 231.938, 747.233 230.988, 732.282 231.136 C 724.702 231.211, 717.522 231.463, 716.327 231.696 M 881.212 232.129 C 875.142 233.879, 873.938 237.485, 874.238 253 C 874.459 264.407, 874.733 266.444, 876 266.141 C 876.825 265.944, 882.225 265.549, 888 265.265 C 901.091 264.621, 908.667 266.333, 921.250 272.782 C 921.663 272.994, 922 265.682, 922 256.534 C 922 231.845, 921.160 230.942, 898.349 231.090 C 890.732 231.140, 883.020 231.607, 881.212 232.129 M 503.795 240.341 C 501.550 243.026, 500.471 245.144, 500.951 245.921 C 501.491 246.794, 502.872 245.772, 505.519 242.543 C 507.914 239.619, 508.963 237.563, 508.363 236.963 C 507.763 236.363, 506.080 237.608, 503.795 240.341 M 8.250 262.989 C 6.462 264.079, 5 265.679, 5 266.544 C 5 268.212, 5.540 268.029, 10.250 264.768 C 12.848 262.969, 13.897 260.996, 12.250 261.004 C 11.838 261.006, 10.038 261.899, 8.250 262.989 M 211.559 263.429 C 209.391 264.099, 207.425 265.224, 207.190 265.929 C 206.729 267.312, 208.501 266.942, 214.663 264.367 C 220.570 261.899, 218.514 261.278, 211.559 263.429 M 301.550 262.850 C 302.072 263.317, 304.525 264.491, 307 265.459 C 309.475 266.427, 312.063 267.443, 312.750 267.717 C 313.438 267.990, 314 267.508, 314 266.646 C 314 265.621, 312.204 264.544, 308.818 263.539 C 303.031 261.820, 300.087 261.541, 301.550 262.850 M 214.705 273.586 C 208.671 276.683, 205.900 279.234, 207.181 280.514 C 207.570 280.904, 220.209 272.921, 222.450 270.870 C 224.375 269.108, 221.391 270.154, 214.705 273.586 M 297 270.683 C 297 271.150, 299.363 272.994, 302.250 274.780 C 305.137 276.567, 308.457 278.715, 309.627 279.555 C 311.537 280.925, 311.815 280.923, 312.347 279.538 C 312.785 278.398, 311.054 277.018, 305.720 274.256 C 296.525 269.493, 297 269.688, 297 270.683 M 509.245 275.247 C 504.998 279.629, 506.321 281.889, 510.794 277.893 C 513.120 275.815, 513.834 274.526, 513.243 273.471 C 512.564 272.256, 511.826 272.584, 509.245 275.247 M 507.573 295.236 C 505.935 296.678, 505.295 297.955, 505.811 298.752 C 506.406 299.672, 507.357 299.237, 509.393 297.112 C 512.765 293.593, 511.233 292.013, 507.573 295.236 M 267.024 314.423 C 267.037 315.015, 269.399 316.601, 272.274 317.947 C 275.148 319.293, 277.838 320.568, 278.251 320.781 C 278.664 320.993, 278.762 320.545, 278.470 319.784 C 277.798 318.032, 266.992 312.971, 267.024 314.423 M 713.381 314.873 C 708.831 317.700, 708 321.378, 708 338.681 C 708 363.564, 708.410 364, 731.788 364 C 756.420 364, 755.947 364.493, 755.978 338.766 L 756 320.032 753.084 316.766 L 750.169 313.500 733.334 313.217 C 718.125 312.962, 716.199 313.122, 713.381 314.873 M 796.756 314.755 C 791.830 317.809, 791 321.225, 791 338.433 C 791 363.723, 791.271 364.006, 815.473 363.985 C 824.838 363.976, 833.073 363.606, 833.773 363.162 C 834.795 362.513, 834.768 361.680, 833.631 358.927 C 830.252 350.741, 828.719 339.992, 829.307 328.603 C 829.622 322.497, 830.184 316.488, 830.556 315.250 L 831.233 313 815.367 313.027 C 802.202 313.049, 799.033 313.343, 796.756 314.755 M 242.187 320.061 C 242.440 320.820, 244.309 321.786, 246.340 322.208 C 248.371 322.630, 251.119 323.687, 252.446 324.557 C 255.030 326.250, 263.767 327.187, 264.587 325.859 C 264.859 325.419, 263.826 324.780, 262.291 324.439 C 257.463 323.368, 245.582 320.168, 243.614 319.409 C 242.251 318.883, 241.855 319.064, 242.187 320.061 M 256 335.138 C 256 335.923, 259.673 338.080, 264.500 340.130 C 273.049 343.760, 276.014 343.938, 269.500 340.430 C 267.575 339.393, 266 338.218, 266 337.818 C 266 337.418, 264.313 336.787, 262.250 336.415 C 260.188 336.043, 257.938 335.293, 257.250 334.747 C 256.374 334.052, 256 334.169, 256 335.138 M 246 344.031 C 246 345.112, 246.727 345.444, 251.250 346.436 C 253.057 346.832, 254 347.680, 254 348.912 C 254 349.943, 254.675 351.045, 255.500 351.362 C 256.414 351.712, 257 351.363, 257 350.469 C 257 348.757, 260.104 348.504, 261.687 350.087 C 262.470 350.870, 262.963 350.869, 263.447 350.085 C 264.167 348.921, 262.204 347.996, 252.500 344.925 C 245.387 342.673, 246 342.758, 246 344.031 M 503.500 346.541 C 501.850 347.294, 499.488 347.930, 498.250 347.955 C 495.642 348.007, 495.451 348.594, 497.407 350.550 C 498.616 351.759, 499.526 351.644, 503.881 349.728 C 506.668 348.503, 508.819 347.078, 508.662 346.563 C 508.207 345.075, 506.727 345.068, 503.500 346.541 M 13.773 350.668 C 9.966 355.687, 11.564 357.261, 15.594 352.461 C 18.524 348.972, 19.123 346.935, 17.191 347.036 C 16.811 347.056, 15.273 348.691, 13.773 350.668 M 256 357.792 C 256 358.541, 266.296 364, 267.709 364 C 268.075 364, 267.130 362.701, 265.609 361.114 C 263.895 359.325, 262.157 358.408, 261.035 358.701 C 260.040 358.961, 258.923 358.685, 258.554 358.087 C 257.777 356.830, 256 356.624, 256 357.792 M 252.750 366.745 C 256.319 368.522, 256.545 369.113, 254.861 372.260 C 253.858 374.135, 254.186 374.782, 257.611 377.680 C 261.683 381.125, 263 381.686, 263 379.975 C 263 379.412, 261.875 378.523, 260.500 378 C 258.486 377.234, 258 376.364, 258 373.525 C 258 370.966, 258.437 370, 259.594 370 C 260.470 370, 261.414 370.869, 261.692 371.931 C 262.296 374.238, 265 375.551, 265 373.537 C 265 371.843, 260.892 368.809, 255.628 366.614 C 250.641 364.535, 248.505 364.632, 252.750 366.745 M 25.127 383.295 C 22.741 387.155, 22.381 389.373, 24.241 388.753 C 26.312 388.063, 29.398 381.998, 28.259 380.859 C 27.585 380.185, 26.552 380.989, 25.127 383.295 M 39.993 415.517 C 38.510 419.418, 38.318 421.815, 39.458 422.187 C 41.040 422.703, 43.511 415.111, 42.191 413.791 C 41.369 412.969, 40.789 413.425, 39.993 415.517 M 58.338 449.915 C 57.381 452.450, 57.483 452.893, 59.119 453.321 C 60.453 453.670, 61 453.282, 61 451.988 C 61 450.985, 61.273 449.452, 61.607 448.582 C 61.981 447.608, 61.681 447, 60.826 447 C 60.063 447, 58.943 448.312, 58.338 449.915 M 70.599 458.257 C 69.843 462.036, 72.121 464.234, 73.150 460.720 C 74.189 457.175, 74.090 456.248, 72.610 455.681 C 71.671 455.320, 71.019 456.155, 70.599 458.257 M 122.533 505.750 C 123.407 511.013, 123.792 512, 124.969 512 C 126.101 512, 126.318 507.790, 125.370 504.250 C 125.038 503.012, 124.124 502, 123.338 502 C 122.243 502, 122.055 502.876, 122.533 505.750 M 377 513.406 C 377 515.419, 386.115 518.433, 387.148 516.761 C 387.688 515.887, 386.363 514.999, 382.709 513.786 C 379.844 512.834, 377.387 512.044, 377.250 512.028 C 377.113 512.013, 377 512.633, 377 513.406 M 347.247 530.241 C 347.474 530.923, 349.035 532.284, 350.714 533.265 C 353.384 534.824, 353.841 534.858, 354.349 533.532 C 354.733 532.533, 353.937 531.502, 352.015 530.508 C 348.473 528.676, 346.692 528.577, 347.247 530.241 M 330 535.977 C 330 537.525, 334.788 540.249, 336.092 539.443 C 336.906 538.940, 336.532 538.145, 334.886 536.879 C 332.270 534.867, 330 534.448, 330 535.977 M 202 536.533 C 202 536.827, 203.125 539.287, 204.501 542.002 C 206.228 545.410, 207.456 546.762, 208.470 546.373 C 209.689 545.905, 209.516 544.979, 207.452 540.905 C 206.085 538.207, 204.299 536, 203.483 536 C 202.667 536, 202 536.240, 202 536.533 M 274.514 542.977 C 274.077 543.685, 275.148 545.664, 277.138 547.825 C 278.987 549.834, 280.620 551.678, 280.767 551.922 C 280.913 552.167, 281.574 551.826, 282.234 551.166 C 283.169 550.231, 282.528 549.057, 279.344 545.873 C 276.552 543.081, 275.018 542.162, 274.514 542.977 M 256.488 544.019 C 255.477 545.655, 261.109 551.185, 262.747 550.164 C 263.643 549.605, 263.042 548.464, 260.609 546.106 C 258.267 543.836, 256.999 543.193, 256.488 544.019" stroke="none" fill="#d3d3d3" fill-rule="evenodd"/><path d="M 794.923 234.923 L 792 237.846 792 257 L 792 276.154 794.923 279.077 L 797.846 282 814.907 282 L 831.968 282 835.234 279.081 L 838.500 276.162 838.500 256.998 L 838.500 237.834 835.234 234.917 L 831.968 232 814.907 232 L 797.846 232 794.923 234.923 M 885.642 275.059 C 869.148 276.975, 854.803 286.586, 846.633 301.196 C 836.374 319.540, 835.640 340.093, 844.568 358.957 C 848.726 367.741, 850.992 370.607, 869.500 390.488 C 877.200 398.760, 893.113 415.984, 904.863 428.764 C 916.613 441.544, 926.581 452, 927.014 452 C 927.675 452, 947.289 431.053, 993.884 380.582 C 998.496 375.587, 1003.994 368.866, 1006.102 365.646 C 1025.141 336.565, 1014.781 294.415, 985 279.795 C 974.547 274.663, 966.615 273.439, 955.893 275.304 C 946.356 276.962, 938.035 280.566, 932.188 285.571 C 929.985 287.457, 927.868 289, 927.485 289 C 927.102 289, 925.086 287.652, 923.006 286.005 C 917.586 281.712, 908.126 277.242, 900.812 275.518 C 897.340 274.699, 894.050 274.082, 893.500 274.146 C 892.950 274.210, 889.414 274.621, 885.642 275.059 M 1272.706 292.627 C 1272.318 293.015, 1272 297.957, 1272 303.608 C 1272 309.259, 1271.558 314.155, 1271.018 314.489 C 1270.478 314.822, 1267.886 314.332, 1265.258 313.398 C 1248.568 307.470, 1233.341 323.334, 1235.325 344.582 C 1237.052 363.071, 1252.067 374.358, 1266.991 368.387 C 1270.087 367.148, 1271.347 367.043, 1272.421 367.935 C 1273.271 368.640, 1276.507 368.979, 1280.660 368.798 L 1287.500 368.500 1287.500 330.500 L 1287.500 292.500 1280.456 292.210 C 1276.582 292.051, 1273.095 292.239, 1272.706 292.627 M 1058.455 297.256 C 1058.190 297.946, 1058.092 314.259, 1058.237 333.506 L 1058.500 368.500 1065.842 368.796 C 1070.395 368.979, 1073.720 368.647, 1074.592 367.923 C 1075.599 367.088, 1076 364.352, 1076 358.323 L 1076 349.890 1080.702 350.195 L 1085.404 350.500 1089.624 358.500 C 1091.946 362.900, 1094.348 367.063, 1094.962 367.750 C 1096.080 369.002, 1112.057 369.609, 1113.222 368.445 C 1113.528 368.139, 1111.353 363.467, 1108.389 358.062 C 1102.521 347.362, 1101.996 345.108, 1104.941 343.269 C 1106.009 342.602, 1108.147 339.906, 1109.691 337.278 C 1112.238 332.946, 1112.500 331.614, 1112.497 323 C 1112.495 315.038, 1112.126 312.810, 1110.220 309.237 C 1107.460 304.063, 1101.407 299.495, 1094.655 297.490 C 1088.066 295.534, 1059.188 295.347, 1058.455 297.256 M 1077.250 312.602 C 1076.372 312.999, 1076 316.118, 1076 323.083 L 1076 333 1082.813 333 C 1088.972 333, 1089.884 332.731, 1092.313 330.195 C 1094.440 327.975, 1095 326.423, 1095 322.751 C 1095 315.830, 1092.215 313.114, 1084.500 312.508 C 1081.200 312.249, 1077.938 312.291, 1077.250 312.602 M 1131.722 313.443 C 1125.980 315.082, 1122 317.537, 1122 319.440 C 1122 322.181, 1125.956 330, 1127.342 330 C 1128.120 330, 1130.371 329.325, 1132.346 328.500 C 1139.657 325.445, 1149 327.928, 1149 332.924 C 1149 334.431, 1147.768 334.799, 1140.958 335.324 C 1126.621 336.429, 1120.015 341.325, 1119.254 351.408 C 1118.193 365.453, 1132.485 374.301, 1145.810 367.850 C 1149.869 365.885, 1150.332 365.842, 1151.176 367.350 C 1152.419 369.571, 1164.159 369.718, 1165.970 367.536 C 1166.859 366.465, 1167.093 360.868, 1166.843 346.705 L 1166.500 327.338 1163.491 322.474 C 1159.361 315.797, 1153.086 312.596, 1143.544 312.299 C 1139.670 312.178, 1134.350 312.693, 1131.722 313.443 M 1201.322 313.326 C 1199.574 313.972, 1197.811 314.837, 1197.405 315.250 C 1196.181 316.493, 1193.325 316.096, 1192 314.500 C 1190.467 312.653, 1179.975 312.425, 1178.200 314.200 C 1176.312 316.088, 1176.508 366.347, 1178.410 367.925 C 1179.272 368.641, 1182.478 368.980, 1186.660 368.798 L 1193.500 368.500 1194 351.327 C 1194.479 334.864, 1194.600 334.048, 1196.924 331.577 C 1200.068 328.236, 1204.826 328.121, 1207.826 331.314 C 1209.877 333.498, 1210 334.563, 1210 350.192 C 1210 363.211, 1210.301 367.005, 1211.408 367.923 C 1212.280 368.647, 1215.605 368.979, 1220.158 368.796 L 1227.500 368.500 1227.445 349.500 C 1227.410 337.441, 1226.933 328.927, 1226.141 326.193 C 1223.009 315.391, 1211.660 309.507, 1201.322 313.326 M 1312.572 314.018 C 1305.922 316.614, 1300.453 322.183, 1297.898 328.959 C 1294.848 337.045, 1295.501 349.767, 1299.298 356.246 C 1304.608 365.307, 1313.413 370.023, 1324.932 369.978 C 1332.773 369.947, 1344.007 364.407, 1343.997 360.576 C 1343.996 359.984, 1342.277 357.508, 1340.178 355.074 C 1336.252 350.521, 1336.206 350.514, 1331 353.524 C 1329.625 354.320, 1326.603 354.977, 1324.285 354.985 C 1320.984 354.997, 1319.303 354.327, 1316.535 351.896 C 1310.285 346.409, 1311.026 346.079, 1330.250 345.774 L 1347.500 345.500 1347.492 339.500 C 1347.464 319.705, 1330.225 307.125, 1312.572 314.018 M 1349.446 314.279 C 1349.158 315.029, 1352.327 325.286, 1356.488 337.072 C 1360.648 348.857, 1364.833 360.750, 1365.788 363.500 L 1367.524 368.500 1376.403 368.500 L 1385.282 368.500 1394.700 342.125 C 1399.880 327.619, 1403.881 315.132, 1403.591 314.375 C 1403.212 313.388, 1401.073 313, 1396.010 313 C 1387.818 313, 1389.172 311.277, 1382.654 330 C 1380.139 337.225, 1377.712 342.614, 1376.901 342.769 C 1375.922 342.957, 1373.968 338.595, 1370.409 328.269 L 1365.318 313.500 1357.644 313.208 C 1351.877 312.988, 1349.840 313.254, 1349.446 314.279 M 1409.705 313.628 C 1408.612 314.721, 1408.885 351.045, 1410.016 355.118 C 1411.599 360.818, 1415.139 365.309, 1419.970 367.750 C 1425.628 370.608, 1431.657 370.626, 1437.469 367.803 C 1441.740 365.728, 1442.062 365.703, 1443.269 367.354 C 1444.316 368.786, 1445.809 369.047, 1451.524 368.801 L 1458.500 368.500 1458.500 341 L 1458.500 313.500 1451.660 313.202 C 1447.478 313.020, 1444.272 313.359, 1443.410 314.075 C 1442.306 314.991, 1442 318.669, 1442 331.046 C 1442 346.586, 1441.957 346.897, 1439.411 349.923 C 1436.159 353.789, 1431.404 354.123, 1428.199 350.712 C 1426.193 348.577, 1426.031 347.250, 1425.775 330.962 L 1425.500 313.500 1417.955 313.212 C 1413.805 313.053, 1410.093 313.241, 1409.705 313.628 M 969.949 323.757 C 968.546 324.715, 958.280 335.288, 947.135 347.250 C 935.990 359.212, 926.338 368.996, 925.686 368.991 C 925.034 368.986, 920.055 364.486, 914.621 358.991 C 905.054 349.314, 904.603 349, 900.295 349 C 894.202 349, 890 353.026, 890 358.862 C 890 363.606, 892.081 366.277, 909.774 384.250 C 921.251 395.908, 921.378 396, 925.993 396 C 930.511 396, 930.874 395.763, 938.587 387.750 C 951.896 373.925, 980.197 343.122, 982.671 339.769 C 986.244 334.926, 985.851 329.651, 981.600 325.400 C 977.730 321.530, 973.981 321.001, 969.949 323.757 M 1315.923 328.923 C 1310.796 334.050, 1311.747 335, 1322 335 C 1329.528 335, 1331 334.742, 1331 333.423 C 1331 330.589, 1325.436 326, 1322 326 C 1319.848 326, 1317.918 326.928, 1315.923 328.923 M 1255.723 330.767 C 1252.507 334.124, 1250.996 343.204, 1253.006 347.093 C 1255.506 351.930, 1258.202 354, 1262 354 C 1268.723 354, 1273.087 345.793, 1271.090 336.905 C 1269.121 328.144, 1261.249 324.999, 1255.723 330.767 M 1137.174 348.314 C 1134.520 351.140, 1134.420 353.165, 1136.829 355.345 C 1141.576 359.641, 1150 355.702, 1150 349.186 C 1150 346.004, 1149.994 346, 1144.674 346 C 1140.400 346, 1138.919 346.457, 1137.174 348.314" stroke="none" fill="#20c2ae" fill-rule="evenodd"/><path d="" stroke="none" fill="#808080" fill-rule="evenodd"/></svg>